<?xml version="1.0" encoding="UTF-8" standalone="no"?>
<!-- Created with Inkscape (http://www.inkscape.org/) -->

<svg
   version="1.1"
   id="svg1"
   width="800"
   height="1205"
   viewBox="0 0 800 1205"
   xmlns="http://www.w3.org/2000/svg"
   xmlns:svg="http://www.w3.org/2000/svg">
  <defs
     id="defs1" />
  <g
     id="g1">
    <g
       id="g56">
      <path
         style="fill:#000000"
         d="m 64.378981,156.50531 c 0,-1.73314 4.49731,-9.3155 7.84507,-13.22661 3.81129,-4.45264 9.77855,-7.86789 13.74706,-7.86789 6.50676,0 12.26681,-6.81278 10.92505,-12.92177 -1.20702,-5.49553 -8.98699,-9.20843 -12.31718,-5.87823 -1.92127,1.92127 -1.3861,2.96996 0.89314,1.75015 4.89367,-2.61901 10.67245,2.28763 9.41846,7.99702 -1.95591,8.90521 -17.5529,9.675 -21.99468,1.08556 -3.08563,-5.96695 -0.51809,-14.74896 5.64875,-19.32101 4.79782,-3.55706 17.60612,-1.94318 22.948449,2.89156 1.19009,1.07701 1.89198,1.19587 2.3818,0.40332 0.83547,-1.35182 5.98007,-0.39605 9.1903,1.70737 3.02931,1.98488 6.31378,9.11203 6.31378,13.70062 0,4.62866 -2.54951,10.27395 -5.30618,11.74927 -1.12501,0.60209 -7.25385,1.67282 -13.61965,2.37941 -6.365789,0.7066 -13.824169,2.04951 -16.574169,2.98425 -5.7332,1.94876 -13.51065,7.31359 -15.90898,10.97391 -1.61892,2.47078 -3.59102,3.34566 -3.59102,1.59307 z"
         id="path53" />
      <path
         style="fill:#000000"
         d="m 109.31701,120.19474 c -0.50304,-1.754 -1.59489,-3.86936 -2.42632,-4.7008 -1.34895,-1.34894 -1.51171,-1.33348 -1.51171,0.14357 0,0.91039 0.39188,1.89746 0.87084,2.19347 0.47896,0.29602 1.14867,1.9274 1.48825,3.62529 0.33958,1.6979 1.03955,2.8262 1.55549,2.50733 0.57736,-0.35683 0.58638,-1.80605 0.0234,-3.76886 z"
         id="path52" />
      <path
         style="fill:#000000"
         d="m 84.720701,141.22367 c 3.38705,-1.05617 10.61981,-2.19363 16.072789,-2.52767 8.92094,-0.54649 10.21816,-0.87867 12.9446,-3.31475 2.66607,-2.38214 3.03675,-3.37481 3.08549,-8.26293 0.0597,-5.98587 -1.77564,-9.55784 -6.47803,-12.60773 l -2.46657,-1.59978 1.85241,2.87111 c 2.43374,3.77215 2.52904,8.99741 0.21082,11.55902 -2.38065,2.63059 -3.17289,2.01678 -3.84273,-2.97726 -1.26823,-9.45536 -9.374769,-15.95287 -19.903409,-15.95287 -4.32808,0 -5.46268,0.44633 -8.2617,3.25 -7.91045,7.92361 -3.98385,19.75 6.5574,19.75 4.04826,0 6.78234,-1.59399 7.93522,-4.62628 1.68691,-4.43692 -2.14002,-8.46522 -6.05273,-6.3712 -1.02291,0.54745 -2.17233,1.97996 -2.55428,3.18336 -0.6799,2.14219 -0.72413,2.14745 -2.11232,0.25106 -3.12166,-4.26447 0.90613,-10.43694 6.81053,-10.43694 5.85349,0 9.97639,4.14771 10.60277,10.66658 0.70119,7.2974 -2.55798,10.73968 -12.74198,13.45786 -5.32579,1.42149 -8.44216,2.91005 -10.75,5.13485 -4.11962,3.97137 -4.21379,5.56317 -0.15828,2.67539 1.70045,-1.21082 5.86295,-3.06564 9.25,-4.12182 z"
         id="path51" />
      <path
         style="fill:#000000"
         d="m 194.97564,213.272 c -10.54343,-1.3529 -25.73141,-4.62095 -34.8701,-7.50311 -11.23156,-3.5422 -19.58809,-7.92767 -30.17649,-15.83645 -13.10216,-9.7864 -15.48104,-10.81809 -26.09516,-11.31706 -10.450729,-0.49129 -17.311499,0.95526 -30.438019,6.41765 -13.99877,5.82537 -16.26682,6.55492 -22.0698,7.09909 -6.764,0.63429 -18.43524,-2.12399 -28.19709,-6.66385 -6.86313,-3.19177 -9.14269,-5.84423 -4,-4.65433 1.5125,0.34996 8.41697,0.91422 15.34326,1.25392 17.62544,0.86443 24.77262,-1.09285 38.90674,-10.65473 15.40889,-10.42429 29.943039,-13.45447 43.819179,-9.13573 6.93047,2.15701 9.80124,4.03023 20.40743,13.31618 13.72805,12.01922 24.91264,16.12765 43.8201,16.09642 13.25755,-0.0219 20.80993,-1.75939 28.2607,-6.50159 4.43994,-2.82589 5.09853,-2.97255 8.61602,-1.91869 9.41317,2.82026 16.78177,0.20823 20.11275,-7.12957 4.9298,-10.85987 -0.40534,-22.72934 -10.21649,-22.72934 -4.25332,0 -8.81969,3.43207 -8.81969,6.62886 0,1.49543 0.30191,1.43613 2.31445,-0.45455 2.77405,-2.60608 6.83627,-2.78907 10.73887,-0.48374 5.82624,3.44164 6.31284,11.62968 1.04172,17.52909 -2.42672,2.71597 -3.57999,3.17974 -8.69639,3.49714 -11.28162,0.69986 -18.36642,-6.50945 -18.57763,-18.90414 -0.13332,-7.82373 2.23433,-12.93094 8.58696,-18.52275 7.34447,-6.46486 18.28678,-8.87984 26.59202,-5.86887 3.45078,1.25104 3.55277,1.2091 7.25278,-2.98269 14.2465,-16.14003 38.95224,-13.97031 46.41644,4.07642 1.5429,3.7304 2.40185,4.52519 5.97013,5.52425 13.77665,3.85722 16.94431,23.65988 4.7131,29.46397 -4.22817,2.0064 -9.57241,1.49399 -12.62258,-1.21025 -1.52318,-1.35043 -2.13332,-1.47422 -2.47298,-0.50173 -1.06249,3.04211 -6.721,12.90784 -9.54888,16.64871 -6.59549,8.72484 -18.77256,16.79046 -32.2573,21.366 -13.21107,4.48268 -36.72512,6.2534 -53.85405,4.05547 z"
         id="path50" />
      <path
         style="fill:#000000"
         d="m 235.87898,209.99116 c 17.11074,-3.11231 29.20996,-8.99735 39,-18.96955 6.43559,-6.55534 11.90952,-15.3138 13.97523,-22.3608 0.81372,-2.77598 1.69253,-2.82709 4.03845,-0.23489 2.0807,2.29916 6.93306,3.81331 10.21179,3.18654 3.31251,-0.63323 7.13849,-4.9596 7.87963,-8.91019 1.45148,-7.73708 -3.45116,-15.15042 -11.41395,-17.25916 -3.79998,-1.00632 -4.5457,-1.69564 -6.3143,-5.83669 -2.41118,-5.64562 -6.0802,-9.71181 -11.08701,-12.28719 -4.9715,-2.55722 -15.74862,-2.5645 -21.36321,-0.0144 -4.20157,1.90829 -11.327,8.14888 -13.15255,11.51926 -0.9668,1.78493 -1.36283,1.82133 -5.90519,0.54265 -10.27777,-2.89318 -19.50737,-0.86011 -26.71047,5.8837 -9.51797,8.91108 -8.79758,25.9194 1.32598,31.3063 8.8863,4.72853 18.4156,0.12046 18.4156,-8.9052 0,-3.88184 -3.94368,-8.2407 -7.45576,-8.2407 -2.72331,0 -5.94424,3.52208 -5.94424,6.5 0,2.79174 -2.4225,3.44731 -3.39301,0.91821 -1.27884,-3.33259 -0.57427,-9.19009 1.40865,-11.71096 5.3078,-6.74778 15.81465,-5.26572 20.60378,2.9063 2.27022,3.87385 2.55376,5.31575 2.21706,11.27454 -0.31499,5.57448 -0.89741,7.50301 -3.16297,10.47331 -4.46415,5.8528 -7.68969,7.00928 -17.45595,6.25858 -7.47313,-0.57443 -8.64951,-0.42537 -10.95494,1.38808 -5.20878,4.09723 -15.69453,6.38486 -29.26262,6.3841 -20.19458,-0.001 -32.43544,-4.61729 -46.77017,-17.63756 -9.12923,-8.2921 -14.82505,-11.34859 -24.11784,-12.94213 -5.91425,-1.01418 -8.13259,-0.94274 -14.651069,0.47182 -7.49602,1.6267 -12.50666,4.07458 -25.96092,12.68284 -9.8181,6.28178 -23.82907,9.53205 -36.70242,8.51424 l -6.29758,-0.4979 3.5,1.61369 c 5.72581,2.63993 17.01488,4.61275 22.5,3.932 4.77825,-0.59302 7.01969,-1.4065 23,-8.34732 3.85,-1.67219 11.15049,-3.75895 16.22332,-4.63723 15.770859,-2.73049 22.982189,-0.57283 40.754909,12.194 14.81109,10.63939 25.06273,14.85994 46.52177,19.1528 21.29858,4.26076 39.38789,4.8015 56.5,1.68894 z"
         id="path49" />
      <path
         style="fill:#000000"
         d="m 360.87898,231.38446 c -8.9447,-1.80509 -15.47743,-5.81826 -19.69603,-12.0996 -2.34489,-3.49146 -2.80397,-5.22272 -2.80397,-10.57419 0,-7.21629 1.48103,-10.84394 5.96884,-14.62019 6.52299,-5.48873 18.24712,-3.95904 21.45411,2.79921 0.86738,1.82786 1.6075,3.93037 1.64473,4.67225 0.0372,0.74188 0.54415,0.36291 1.1265,-0.84215 1.59231,-3.295 -1.73099,-8.17329 -8.24005,-12.09559 -8.26261,-4.97897 -14.69421,-6.50894 -25.34861,-6.02999 -8.01205,0.36017 -10.03566,0.85834 -16.85092,4.14833 -7.65274,3.69427 -21.12307,13.30999 -33.7546,24.09554 -11.3376,9.68071 -19.34698,12.4333 -38.5,13.23133 -9.51698,0.39653 -15.67925,0.10264 -23,-1.09694 -11.45782,-1.87748 -17.5,-3.50712 -17.5,-4.71995 0,-0.46294 4.6125,-0.85063 10.25,-0.86152 5.6375,-0.0109 13.29223,-0.45973 17.01051,-0.99742 9.81411,-1.41918 27.25848,-7.36193 34.54412,-11.7681 8.81787,-5.33282 17.38161,-14.13754 21.64877,-22.25795 3.58374,-6.81987 3.60005,-6.83405 6.63944,-5.77451 7.28415,2.53927 16.86312,-1.40645 20.59628,-8.48391 2.40133,-4.55253 2.12976,-12.63726 -0.57129,-17.00765 -2.80866,-4.54451 -9.40292,-10.47312 -12.51888,-11.25517 -1.69956,-0.42656 -3.31756,-2.328 -5.27521,-6.19928 -3.22784,-6.38311 -7.98628,-10.29301 -15.64594,-12.8559 -12.48312,-4.17679 -25.67725,-0.6342 -32.587,8.74953 l -3.40919,4.62984 -4.09081,-1.85788 c -8.99889,-4.08692 -19.54749,-1.61382 -28.51033,6.68419 -12.97207,12.00985 -14.95858,27.42342 -4.90145,38.03083 l 2.95512,3.11681 -6.66163,2.66683 c -13.06978,5.23219 -28.91905,7.02672 -39.19873,4.43827 -2.99454,-0.75403 -11.07124,-5.49697 -23.03117,-13.52475 -22.54665,-15.13383 -24.68434,-16.24371 -32.73415,-16.99541 -12.575339,-1.17431 -22.334519,2.11709 -42.702559,14.40193 -12.6597,7.6356 -17.95252,9.40692 -28.28664,9.46654 -9.30543,0.0537 -10.22642,-1.51506 -2.08946,-3.559 13.03183,-3.27349 20.03064,-7.34589 31.5702,-18.36973 10.95759,-10.46789 23.73464,-14.96834 39.783889,-14.01304 11.38064,0.67742 18.49691,3.57175 26.88324,10.93397 13.19476,11.58346 30.66295,13.04248 39.23695,3.27724 9.68768,-11.03367 0.0325,-28.73076 -14.21656,-26.05763 -6.1173,1.14761 -12.35411,9.83508 -8.68752,12.10116 0.56898,0.35165 1,-0.50553 1,-1.98873 0,-3.92298 4.41493,-7.51127 9.24165,-7.51127 7.79172,0 12.39716,5.99999 11.53028,15.02171 -0.7707,8.02087 -6.14744,12.23786 -15.77741,12.37427 -7.33956,0.10397 -16.08796,-4.06896 -19.57393,-9.33662 -2.73468,-4.13237 -4.05804,-11.84794 -2.99972,-17.48925 1.32905,-7.08446 9.39741,-13.57011 16.88164,-13.57011 h 3.36674 l -0.4061,-7.75 c -0.34853,-6.65124 -0.077,-8.37977 1.91537,-12.19204 3.69767,-7.075311 8.6526,-10.388751 16.25975,-10.873131 3.50015,-0.22288 7.98777,0.1307 9.97249,0.78572 3.31026,1.09248 3.85955,0.97978 6.64399,-1.36317 6.31381,-5.31272 15.2674,-5.81484 20.67932,-1.1597 2.4814,2.13441 2.79608,3.17344 3.31136,10.933541 0.50543,7.61166 0.90881,8.99437 3.59065,12.30786 1.66169,2.05308 5.01085,4.80207 7.44258,6.10888 3.69433,1.98532 5.43877,2.29925 10.60887,1.90919 8.06449,-0.60843 12.91457,-3.55341 15.50813,-9.41656 2.15536,-4.87257 1.86313,-8.02041 -1.21438,-13.080971 -2.47289,-4.06635 -4.58884,-4.28519 -2.50696,-0.25928 0.83912,1.62269 1.52568,4.771391 1.52568,6.997121 0,3.24332 -0.71629,4.83962 -3.60775,8.04013 -11.22918,12.42936 -28.34833,3.07662 -28.34833,-15.487591 0,-18.41011 16.97068,-30.21692 32.74798,-22.78335 2.90694,1.36962 3.43318,1.37739 4.5,0.0664 2.35859,-2.8984 8.66416,-6.95851 13.89196,-8.94491 15.617,-5.93399 34.17542,1.23059 42.25688,16.31351 1.57611,2.94159 2.97418,5.48831 3.10681,5.65937 0.13264,0.17107 2.94588,-0.24763 6.25166,-0.93042 9.52367,-1.96708 16.1477,-0.0727 22.66109,6.48059 5.52782,5.56174 7.5397,10.323871 7.5397,17.846541 0,4.35832 0.10534,4.50725 4.01658,5.67909 4.96442,1.48738 10.22174,5.98828 12.4298,10.64142 1.95363,4.11697 2.22768,11.89931 0.59341,16.8512 -1.46666,4.44402 -7.781,10.17723 -12.71901,11.54843 -10.60926,2.94603 -23.56848,-1.70483 -27.8567,-9.99733 -3.428,-6.62901 -0.56153,-15.48583 6.02907,-18.62867 4.19782,-2.0018 4.5589,-3.21154 0.75685,-2.5357 -8.06766,1.43408 -12.83443,13.7647 -8.67869,22.4499 3.29765,6.89186 14.29262,11.78393 26.48446,11.78393 7.80625,0 13.08743,-1.6424 18.95979,-5.89631 5.61813,-4.06976 9.64561,-4.71095 16.34827,-2.6027 13.07668,4.11312 19.6042,15.45974 15.09803,26.24453 -0.84598,2.0247 -2.18936,4.40087 -2.9853,5.28037 -1.26373,1.39641 -1.24961,2.54181 0.11135,9.0366 1.27889,6.10308 1.35017,8.51402 0.39729,13.43751 -2.46515,12.7374 -10.34876,21.98759 -21.73711,25.50509 -6.84162,2.11316 -9.32072,2.26563 -15.74809,0.96856 z"
         id="path46" />
      <path
         style="fill:#000000"
         d="m 377.58425,227.85653 c 6.11305,-2.08292 11.73347,-7.07984 15.26832,-13.57453 3.60963,-6.63208 4.65466,-18.69258 2.22426,-25.66969 -1.48996,-4.27733 -1.4806,-4.32336 1.90241,-9.35049 2.34011,-3.47739 3.39461,-6.18947 3.38329,-8.7015 -0.055,-12.19511 -17.62562,-22.35886 -27.98355,-16.1871 -10.9405,6.51889 -13.61676,7.28736 -23.83635,6.84444 -10.63436,-0.4609 -17.32658,-2.7208 -22.53681,-7.61047 -8.13485,-7.63434 -7.28595,-21.94126 1.69712,-28.60236 3.38416,-2.50942 10.91985,-2.55354 15.68029,-0.0918 3.94671,2.04092 3.0467,3.44845 -1.79021,2.79968 -5.13446,-0.68867 -10.69128,1.79216 -13.18841,5.88794 -4.23201,6.94133 -1.63216,14.4252 6.32731,18.21363 10.01636,4.76743 18.5448,4.25927 25.09913,-1.49552 4.26627,-3.74583 5.9087,-8.54399 5.32675,-15.56147 -0.6854,-8.26504 -6.66642,-14.66523 -14.94132,-15.98844 -3.79072,-0.60616 -3.81592,-0.64078 -3.21251,-4.41428 1.75273,-10.96102 -6.09262,-22.562221 -16.89218,-24.979051 -4.74735,-1.06242 -6.54445,-1.00396 -12.10926,0.39387 -8.00284,2.01025 -7.62154,2.01568 -7.63294,-0.10856 -0.0163,-3.04316 -5.73233,-11.87308 -10.11377,-15.62343 -12.25949,-10.49367 -31.12837,-10.01912 -42.99566,1.08134 l -4.71997,4.41498 -4.04077,-2.06145 c -4.78652,-2.4419 -13.86078,-2.77141 -17.9201,-0.65072 -9.95854,5.20259 -14.98209,19.86857 -10.32068,30.130651 2.0254,4.45891 6.97363,9.13272 10.6443,10.054 6.04775,1.51789 15.47604,-5.59768 15.47604,-11.67983 0,-4.17996 -2.43055,-8.466091 -5.99488,-10.571591 -3.7454,-2.21246 -3.82645,-3.34395 -0.23952,-3.34395 4.51166,0 9.48396,3.33135 11.95947,8.01262 2.79613,5.287551 2.85526,8.157131 0.27778,13.481491 -7.12352,14.71522 -31.22199,13.75763 -39.03187,-1.551 -1.37066,-2.6867 -1.97098,-5.8692 -1.97098,-10.44873 0,-5.608821 -0.35413,-6.939421 -2.38827,-8.973561 -3.60417,-3.60417 -8.63685,-4.17116 -13.99602,-1.57684 -2.44752,1.18483 -5.14987,3.22231 -6.00522,4.52774 l -1.55518,2.3735 -3.97935,-1.92261 c -15.72993,-7.59987 -31.70473,7.781261 -25.78566,24.827391 l 1.47577,4.25 h -4.91516 c -6.57358,0 -10.98934,2.00386 -14.46909,6.56605 -2.51842,3.30181 -2.88182,4.63003 -2.88182,10.53278 0,7.53783 1.24195,9.94788 7.9067,15.34328 3.54971,2.87365 4.28869,3.05789 12.26503,3.05789 8.32151,0 8.54492,-0.064 11.408,-3.26578 8.29628,-9.27785 -3.05104,-25.4311 -12.00489,-17.08932 -1.91833,1.78719 -2.22042,2.8712 -1.8114,6.5 0.55627,4.93515 -0.43462,5.48236 -3.94899,2.18078 -4.59566,-4.3174 -1.84026,-12.92469 5.20823,-16.26942 4.93661,-2.34258 12.19622,-1.68174 16.96179,1.54403 10.72891,7.26228 9.46106,25.84252 -2.14523,31.43809 -5.88571,2.83758 -14.96708,3.0732 -23.11082,0.59962 -5.47032,-1.66156 -8.2547,-3.3059 -13.6238,-8.04564 -8.03572,-7.0938 -15.28881,-9.98152 -27.10462,-10.79138 -14.258509,-0.97727 -26.042159,3.45486 -37.374919,14.05766 -9.39995,8.79448 -13.05086,11.37044 -20.8006,14.67619 -3.9222,1.67305 -5.88248,2.92256 -4.60943,2.93811 4.09795,0.0501 11.7231,-3.15344 21.28495,-8.94228 21.20773,-12.83938 29.22663,-15.57698 43.285559,-14.77738 10.61044,0.60347 12.49783,1.49647 32.71444,15.47862 22.13942,15.31199 23.25206,15.78947 36.5,15.66353 8.87186,-0.0843 12.73705,-0.62833 19.97851,-2.81184 4.93817,-1.489 9.17745,-2.90622 9.4206,-3.14937 0.24316,-0.24316 -0.48203,-1.45283 -1.61153,-2.68816 -6.76425,-7.39805 -7.69528,-17.44218 -2.57382,-27.76709 6.43422,-12.97144 17.60119,-20.97897 29.25643,-20.97897 3.35173,0 7.74169,0.68843 9.75547,1.52984 3.31481,1.38502 3.74567,1.37933 4.55122,-0.0601 4.70971,-8.41579 13.5037,-12.87586 25.36183,-12.86282 7.13921,0.008 8.94369,0.40525 14.69361,3.23593 6.75737,3.32664 11.83327,8.46513 13.72634,13.89558 0.67219,1.92825 2.1249,3.28778 4.38726,4.10586 4.51114,1.63125 11.2771,8.3326 13.61769,13.48766 3.8209,8.41535 1.27544,17.9964 -6.40548,24.11009 -3.47429,2.76539 -4.5622,3.06863 -11.37077,3.16942 l -7.52891,0.11145 -3.12922,5.86832 c -3.83765,7.19683 -13.22596,16.79361 -20.73023,21.19053 -12.03152,7.04956 -32.699,13.17014 -44.73697,13.24866 -4.07422,0.0266 -4.40986,0.18144 -2.66203,1.22826 2.75025,1.6472 32.3044,1.63465 39.32365,-0.0167 8.01147,-1.88479 15.07516,-5.73779 22.75737,-12.41339 10.79625,-9.3816 26.5022,-20.50465 33.72651,-23.88531 12.4861,-5.84295 26.74468,-5.86493 39.19247,-0.0604 12.0111,5.60089 16.45032,12.2049 13.03795,19.39593 -2.45672,5.17715 -4.53419,5.60601 -4.55269,0.93983 -0.0207,-5.22159 -1.9041,-8.4262 -6.1845,-10.52295 -3.14144,-1.53883 -4.31748,-1.6355 -7.99211,-0.65697 -7.33278,1.95267 -10.80865,6.61899 -10.80865,14.51052 0,12.23364 11.17957,21.23267 26.57186,21.38909 3.33952,0.0339 8.12456,-0.63773 10.63341,-1.49258 z"
         id="path45" />
    </g>
    <g
       id="g53">
      <path
         style="fill:#000000"
         d="m 563.85802,218.60938 c -5.2492,-1.8151 -8.9589,-4.11639 -16.479,-10.22274 -12.0027,-9.74622 -29.2189,-19.77377 -44,-25.62777 -9.2483,-3.66272 -9.8446,-3.76303 -22.50004,-3.78491 -13.63019,-0.0236 -22.35676,1.79014 -31.84691,6.61897 -7.24205,3.68494 -4.6708,1.14711 3.59239,-3.54571 12.43588,-7.06255 19.92282,-9.07819 33.75452,-9.08741 9.94914,-0.007 12.64624,0.37248 20.00004,2.81114 13.1921,4.37482 20.7025,2.98336 24.6023,-4.55812 2.886,-5.58088 0.5545,-14.04215 -4.6345,-16.81922 -2.8182,-1.50825 -3.1263,-1.02221 -1.9507,3.07683 1.5957,5.56391 1.1603,7.91678 -2.061,11.13808 -2.7381,2.73808 -3.4636,2.97676 -7.2215,2.37585 -20.7929,-3.32492 -28.19173,-32.93817 -10.5343,-42.16284 4.4015,-2.29946 11.7614,-1.80078 16.0076,1.08464 l 3.6723,2.49535 2.6962,-4.95383 c 3.6025,-6.61896 8.9673,-10.25157 16.0014,-10.8349 9.856,-0.81733 17.6377,3.86097 20.4138,12.27261 1.4428,4.37177 0.1773,8.77945 -4.0467,14.09464 -2.6965,3.39314 -2.9449,4.36966 -2.9449,11.57489 0,7.23022 -0.211,8.05124 -2.5977,10.11249 -4.5213,3.90464 -6.706,9.48501 -7.1943,18.3763 -0.6933,12.62549 2.843,21.01731 11.5569,27.4256 4.4797,3.29439 14.2676,6.17909 18.1293,5.34305 12.0619,-2.61133 19.3187,-10.10557 19.5073,-20.14554 0.054,-2.88419 0.1994,-5.24669 0.3228,-5.25 0.1233,-0.003 0.9108,1.32163 1.75,2.94432 4.6007,8.89688 -2.6354,22.23821 -13.8716,25.57499 -6.5273,1.9384 -13.92,1.81836 -20.1237,-0.32676 z"
         id="path48" />
      <path
         style="fill:#000000"
         d="m 571.60712,227.95664 c -7.2581,-1.65387 -20.0903,-8.19878 -25.7906,-13.1542 -2.8678,-2.4931 -1.9017,-2.04813 3.5562,1.63793 10.1462,6.8523 18.3471,9.27928 29.7624,8.80795 13.2033,-0.54515 19.9196,-4.55583 25.4892,-15.22104 6.2128,-11.89693 -1.1112,-27.46564 -14.4231,-30.65911 -10.6177,-2.54714 -16.4543,1.79669 -15.4079,11.46729 0.539,4.98162 1.853,6.78957 4.5857,6.3091 1.0277,-0.1807 1.5342,-1.56905 1.6088,-4.40966 0.1449,-5.52014 0.9422,-7.32409 3.2373,-7.32409 4.8034,0 6.5788,8.4251 3.2321,15.33835 -2.5955,5.36167 -6.7333,7.66165 -13.7836,7.66165 -8.5538,0 -16.6619,-6.80767 -20.1273,-16.89923 -2.7861,-8.11321 0.048,-16.99186 6.8622,-21.50165 l 3.9564,-2.6182 -0.1246,-8.96508 c -0.1326,-9.53785 0.5156,-11.41713 5.9552,-17.26584 2.1134,-2.27232 3.4023,-2.75 7.4202,-2.75 5.9284,0 9.8787,-1.91562 12.857,-6.23491 3.258,-4.7248 6.8804,-7.57633 11.1591,-8.78423 6.2917,-1.77623 10.9851,0.35197 20.4614,9.27811 9.8048,9.23547 15.2711,11.98084 23.8472,11.97688 9.7341,-0.004 18.0018,-5.60287 19.98,-13.52922 1.6705,-6.69332 -4.4926,-14.70663 -11.3109,-14.70663 -6.3396,0 -11.0521,7.70675 -8.3452,13.64773 1.6627,3.64924 4.7098,2.77006 4.3071,-1.24275 -0.3741,-3.72868 1.8277,-5.86773 5.1751,-5.02759 4.9058,1.23129 3.7501,9.47619 -1.7253,12.30761 -9.2735,4.79553 -21.5442,-1.21413 -26.5803,-13.01791 -7.1553,-16.77086 7.0633,-32.479531 25.5161,-28.190041 2.9658,0.68943 6.0023,1.75969 6.7477,2.37836 1.0628,0.88202 2.0492,0.26143 4.5695,-2.87472 9.1882,-11.43339 28.0608,-8.64208 35.1832,5.20366 l 1.8952,3.684351 5.7632,-2.95783 c 10.3487,-5.311241 21.3084,-5.679031 31.5959,-1.060301 16.9314,7.601631 21.5483,31.907911 8.2561,43.465721 -6.3168,5.49255 -17.6592,8.24918 -22.9046,5.56667 -5.6629,-2.89606 -7.652,-10.79217 -3.6345,-14.42797 3.8611,-3.49428 12.9503,-1.24836 12.9503,3.2 0,1.85616 1.6526,1.69264 2.393,-0.23678 1.2023,-3.13314 0.563,-6.35775 -1.8065,-9.11245 -2.1016,-2.44324 -3.1257,-2.80576 -7.9266,-2.80576 -8.9382,0 -15.0446,5.84726 -15.0446,14.40626 0,6.54712 3.6109,12.05669 9.8958,15.09915 6.4375,3.11632 17.2196,2.51448 23.7748,-1.32708 5.1669,-3.028 10.4083,-10.28091 11.2533,-15.57208 1.1589,-7.25634 1.6168,-8.41615 4.435,-11.23439 2.2832,-2.28311 3.7646,-2.87186 7.2263,-2.87186 5.3385,0 8.1508,1.86189 11.0508,7.31608 3.273,6.15549 3.1662,19.21468 -0.2132,26.09802 -2.9874,6.08475 -10.3145,13.45295 -17.4213,17.51906 -6.467,3.70003 -7.8745,5.2474 -7.4436,8.18347 0.4705,3.20645 1.9619,3.28088 6.331,0.31596 5.2795,-3.5828 9.218,-4.01451 13.3059,-1.45851 4.5708,2.85788 6.5795,8.05384 5.7714,14.92899 -3.0773,26.18302 -32.3147,35.36156 -51.914,16.29742 -6.7723,-6.58741 -9.974,-13.17523 -10.0816,-20.74418 -0.097,-6.85554 1.884,-10.9241 6.1013,-12.52751 2.8474,-1.08257 6.896,0.82171 8.0301,3.77693 0.5533,1.44182 0.2273,2.69625 -2.2588,8.69394 -0.6989,1.68628 -0.46,1.82247 2.127,1.21236 4.6168,-1.0888 7.4145,-4.96315 7.4145,-10.2678 0,-3.83462 -0.531,-5.07517 -3.4,-7.94423 -2.8504,-2.85033 -4.1212,-3.4 -7.8605,-3.4 -3.0036,0 -5.5675,0.75067 -7.85,2.29836 l -3.3895,2.29836 v -7.54836 c 0,-14.21337 -6.8825,-23.13823 -20.5419,-26.63759 -5.591,-1.43236 -6.8104,-1.43532 -13.0259,-0.0317 -3.7716,0.85174 -8.7193,2.72395 -10.995,4.16048 -3.9054,2.46541 -4.4188,2.54439 -9.1544,1.40833 -6.7001,-1.60734 -14.3899,-0.68748 -20.6123,2.46566 -3.0011,1.52076 -6.7791,2.58643 -9.1694,2.58643 -19.7199,0 -29.0826,26.26523 -15.0468,42.21075 4.9294,5.60015 10.0775,8.20805 14.7167,7.4552 l 3.4075,-0.55296 -3.1534,3.98157 c -3.6422,4.59864 -12.3244,11.88302 -18.4233,15.45721 -11.7385,6.87924 -29.7209,9.85438 -42.2737,6.99406 z"
         id="path47" />
      <path
         style="fill:#000000"
         d="m 580.23032,243.28899 c -9.8979,-0.80466 -20.8129,-4.14156 -28.3513,-8.66744 -6.6323,-3.98179 -17.5002,-14.54108 -28.4106,-27.60366 -9.8069,-11.74143 -15.8808,-15.9762 -27.3401,-19.06194 -6.30659,-1.69821 -3.98347,-1.99197 3.4514,-0.43644 10.4324,2.18266 16.2578,6.2237 32.2993,22.40579 12.8903,13.00337 16.0548,15.65056 22.5,18.8224 18.3649,9.03787 40.3485,8.71029 60.8682,-0.90698 12.2452,-5.73911 24.2768,-16.08288 28.2881,-24.31971 2.9929,-6.1456 3.1698,-16.19983 0.367,-20.8602 -2.9023,-4.82585 -4.0233,-4.03617 -4.0233,2.83407 0,6.71763 -1.6062,8.93546 -6.4412,8.89397 -8.6112,-0.0739 -15.2732,-7.66843 -15.4163,-17.57438 -0.1579,-10.92241 5.657,-17.61174 15.6652,-18.0208 4.514,-0.18451 6.7903,-0.8718 9.8037,-2.96011 5.5025,-3.81321 12.326,-4.35761 18.3099,-1.46081 l 4.5525,2.2038 2.5961,-2.04207 c 4.3632,-3.43212 13.0008,-6.12367 19.6518,-6.12367 7.8898,0 13.5954,2.68592 17.4166,8.19891 2.5401,3.66472 2.8617,4.98872 2.8617,11.78414 0,6.52425 -0.3695,8.19587 -2.5,11.31185 -4.8223,7.05254 -13.3308,8.85825 -17.2007,3.65034 -3.8408,-5.16894 1.6793,-11.36843 8.1227,-9.12226 3.7735,1.31545 3.9803,0.0319 0.4431,-2.7504 -4.641,-3.65058 -12.0941,-2.29958 -17.0048,3.0824 -2.5024,2.74246 -6.5451,10.64425 -8.3625,16.34502 -2.5475,7.99094 -8.9163,19.12816 -14.1473,24.73979 -6.0266,6.46506 -19.2766,15.08574 -30.134,19.60566 -15.7283,6.54773 -32.177,9.30814 -47.8652,8.03273 z"
         id="path44" />
      <path
         style="fill:#000000"
         d="m 587.37902,254.04738 c -5.778,-1.39487 -11,-3.29689 -11,-4.00651 0,-0.23069 1.6875,-0.0276 3.75,0.45139 5.8802,1.36551 21.4199,1.06566 29.1608,-0.56269 8.4124,-1.76961 23.1015,-8.46034 34.9683,-15.92777 12.2177,-7.68816 18.5376,-9.59099 31.8549,-9.59099 8.5875,0 11.5102,-0.37894 14.2816,-1.85161 7.7319,-4.10877 10.5597,-14.0775 5.5321,-19.50237 -4.9954,-5.39008 -14.5477,-2.22291 -14.5477,4.82342 0,2.68852 0.098,2.75197 1.8287,1.18555 5.987,-5.4182 11.4811,3.12605 5.7167,8.89046 -4.3586,4.35863 -13.7824,2.61949 -16.3508,-3.01751 -1.5865,-3.48198 -1.5147,-9.82616 0.1564,-13.82568 1.7251,-4.12885 7.4233,-9.14264 12.1714,-10.70968 7.6543,-2.52615 17.788,1.88581 21.3815,9.30901 2.3006,4.75231 2.8213,13.6607 1.0681,18.272 -1.4566,3.831 -0.3585,4.26737 2.7973,1.11161 2.1167,-2.1167 2.8241,-3.96291 3.2367,-8.44697 l 0.5279,-5.73823 1.733,3.20034 c 3.2118,5.93111 1.85,13.06684 -3.4356,18.00193 -4.9359,4.60866 -9.3895,5.65107 -27.3313,6.39723 -20.3899,0.84796 -25.9058,2.22918 -43,10.76747 -17.3904,8.68618 -25.7418,11.2249 -38.5,11.70349 -6.6411,0.24913 -12.5214,-0.0941 -16,-0.93389 z"
         id="path43" />
    </g>
    <g
       id="g58">
      <path
         style="fill:#000000"
         d="m 618.87902,483.44108 c -5.7788,-1.22925 -13.5215,-4.44666 -19.3888,-8.05687 l -5.1044,-3.14074 -3.3632,2.07854 c -5.8571,3.61992 -11.8412,5.20893 -19.5202,5.18339 -6.0184,-0.02 -8.5041,-0.55604 -13.5,-2.9112 -3.3679,-1.58767 -7.3234,-4.10226 -8.79,-5.58799 l -2.6666,-2.70132 -5.8334,1.61241 c -9.4653,2.6163 -26.4709,3.06367 -37.988,0.99936 -19.2997,-3.45927 -40.31264,-12.52438 -59.51042,-25.6732 -4.85926,-3.32817 -8.83502,-6.19563 -8.83502,-6.37213 0,-0.1765 1.4625,0.13969 3.25,0.70264 14.06656,4.43011 43.63313,8.82586 59.25004,8.80889 16.8183,-0.0183 34.4874,-3.84447 44.2947,-9.59189 4.9828,-2.92016 12.2053,-9.13655 12.2053,-10.50518 0,-0.49077 -1.3631,-2.77388 -3.029,-5.07359 -4.5894,-6.3356 -7.3727,-16.59747 -6.6373,-24.47217 1.6686,-17.86895 13.5392,-29.22616 32.5823,-31.17322 l 6.4161,-0.656 1.5852,-4.5 c 3.4579,-9.81574 7.1509,-14.10239 16.0827,-18.66796 5.1209,-2.61762 6.327,-2.81209 17.5,-2.82171 6.7584,-0.006 13.7884,0.53422 16.0946,1.23637 9.4989,2.89217 17.7953,11.13211 21.5349,21.38839 1.1761,3.2257 2.2465,5.86491 2.3785,5.86491 0.132,0 2.3661,-1.18826 4.9645,-2.64057 3.349,-1.87175 6.7004,-2.78194 11.5106,-3.12612 5.8613,-0.41937 7.5174,-0.13113 12.1515,2.11497 2.9509,1.43028 6.1285,3.15689 7.0613,3.83691 1.4277,1.04085 2.3409,0.71811 5.7737,-2.04058 2.2428,-1.80233 6.6546,-4.48469 9.8041,-5.96079 4.8834,-2.28879 7.051,-2.68382 14.7263,-2.68382 7.3484,0 9.8491,0.41837 13.6272,2.2798 9.7537,4.80551 16.2056,14.20457 17.4798,25.46422 0.6288,5.55687 0.7912,5.81454 4.9845,7.90879 5.3461,2.66998 11.6542,8.79683 14.083,13.67827 2.6246,5.27504 2.556,20.2816 -0.115,25.16892 -1.2921,2.36425 -2.1328,6.58275 -2.5905,13 -1.0884,15.25697 -6.9278,24.26603 -19.5673,30.18886 -16.268,7.62314 -32.5088,5.42543 -46.5965,-6.30546 l -4.6948,-3.90936 -4.7002,2.98077 c -11.3683,7.20953 -22.6618,7.89084 -34.797,2.09922 l -6.7932,-3.24209 -1.6132,2.34403 c -6.8374,9.9352 -21.3913,15.49405 -33.7068,12.8743 z"
         id="path40" />
      <path
         style="fill:#000000"
         d="m 635.10032,479.90092 c 6.9317,-2.0585 14.845,-9.2776 18.0604,-16.47608 2.9299,-6.55913 3.3191,-14.68493 0.8817,-18.40495 -2.5965,-3.96275 -8.2727,-7.74699 -12.4633,-8.30906 -13.974,-1.87431 -19.924,18.33572 -6.6845,22.70514 3.3625,1.10974 4.3478,2.34317 2.6901,3.36768 -1.4261,0.88137 -8.8107,-3.05511 -11.0343,-5.88207 -4.4509,-5.65836 -2.1418,-15.49755 4.852,-20.67493 6.1185,-4.52941 15.5649,-2.89417 22.3234,3.86437 4.1085,4.10845 5.1727,7.97693 4.2959,15.61614 -0.3285,2.86201 -0.72,6.32865 -0.87,7.70365 -0.2346,2.15039 0.5663,2.91953 5.7273,5.5 5.1835,2.59175 7.0886,2.99737 14,2.98067 6.6767,-0.0161 8.827,-0.45374 13,-2.6456 2.75,-1.44445 6.2853,-3.82111 7.8563,-5.28147 l 2.8563,-2.65519 5.6437,5.36898 c 3.104,2.95294 8.3437,6.6732 11.6437,8.26724 5.2327,2.52764 7.1508,2.90191 15,2.92683 8.1333,0.0258 9.674,-0.28925 16,-3.27195 12.224,-5.76367 18.0281,-13.16557 19.1543,-24.42721 l 0.6262,-6.2623 -2.3903,2.12504 c -3.4207,3.04113 -5.7821,4.08904 -10.8902,4.83265 -6.1194,0.89082 -12.389,-0.52319 -12.8462,-2.89726 -0.2791,-1.44943 0.046,-1.69387 1.4947,-1.12398 1.0183,0.40055 4.1015,0.94832 6.8515,1.21726 9.3816,0.91751 15.9964,-4.34643 20.4628,-16.284 5.5709,-14.88958 -0.3601,-29.17752 -14.7128,-35.44327 -3.9059,-1.70512 -4.25,-2.15661 -4.25,-5.5753 0,-10.67266 -5.729,-20.75578 -14.834,-26.10819 -4.1537,-2.44179 -5.6542,-2.74295 -13.666,-2.74295 -7.8352,0 -9.7119,0.35764 -14.5,2.76337 -3.025,1.51985 -7.4484,4.57244 -9.8298,6.78354 l -4.3298,4.02017 -3.3151,-2.91068 c -10.4446,-9.17051 -25.535,-7.72316 -36.965,3.5454 -7.5305,7.42411 -9.6581,18.575 -5.2087,27.2982 6.2895,12.33049 25.2358,14.71139 33.1484,4.16559 1.5654,-2.08638 2,-4.22079 2,-9.82277 0,-6.50426 -0.2821,-7.50774 -3.0917,-11 -1.8319,-2.27704 -4.7515,-4.42957 -7.1654,-5.28284 -3.7037,-1.30921 -4.4511,-1.26989 -8.2273,0.43296 -8.6632,3.90658 -9.3052,15.07341 -1.0628,18.48752 1.6759,0.6942 3.0472,1.88258 3.0472,2.64086 0,1.71675 -0.2637,1.71318 -4.5103,-0.0611 -6.8262,-2.85218 -9.4795,-11.78424 -5.4593,-18.3782 2.6114,-4.28328 9.8497,-7.62538 14.7816,-6.82504 4.426,0.71823 10.0045,5.13827 12.9215,10.23813 4.3926,7.67955 2.0935,20.54364 -4.5121,25.24726 -4.8126,3.42685 -12.1575,4.71404 -18.6316,3.2652 -7.0543,-1.57868 -11.3365,-4.52747 -14.8666,-10.23724 -5.6017,-9.0605 -4.4721,-20.80587 2.9342,-30.50862 2.8957,-3.79362 3.3511,-5.05479 2.7796,-7.69921 -2.1416,-9.90982 -11.1764,-19.95417 -20.6287,-22.93373 -11.1113,-3.50253 -27.2909,-1.86093 -35.5836,3.61037 -4.6014,3.03587 -10.1117,11.38562 -11.0149,16.6907 l -0.761,4.47021 -8.3973,0.6978 c -19.7943,1.6449 -30.5515,12.67383 -30.5515,31.32323 0,6.99854 0.4067,8.84693 3.1908,14.5 1.755,3.56343 4.1175,7.47265 5.25,8.68715 1.1325,1.21451 2.0553,2.56451 2.0505,3 -0.015,1.34477 -6.8688,8.11144 -11.3143,11.17003 -5.7296,3.94207 -14.5635,7.49541 -24.177,9.72494 -11.6965,2.71258 -41.43288,2.46098 -57.90688,-0.48996 -6.54877,-1.17306 -12.08159,-1.95809 -12.29518,-1.74451 -1.03288,1.03288 21.02807,12.23087 31.70202,16.09174 20.40164,7.37946 46.11644,8.47408 61.34664,2.61138 2.5338,-0.97535 3.0695,-0.81242 4.8746,1.4823 3.0233,3.84356 9.0843,7.30937 15.7843,9.02583 8.7945,2.25304 17.5371,0.33886 26.171,-5.73008 2.6729,-1.8789 2.6824,-1.87736 7.1871,1.16281 5.579,3.76521 11.7068,6.51309 18.7453,8.40592 7.0536,1.89689 11.4062,1.91456 17.6124,0.0715 z"
         id="path39" />
    </g>
    <g
       id="g55">
      <path
         style="fill:#000000"
         d="m 60.384011,414.52889 c 0.003,-0.33995 1.70115,-2.85748 3.77416,-5.59453 4.55198,-6.01007 9.50235,-9.52355 13.41835,-9.52355 9.50948,0 15.55979,-9.67057 10.61574,-16.96777 -4.38134,-6.46666 -12.5635,-6.1479 -14.24582,0.55499 -0.81697,3.25507 0.91644,5.61422 1.88435,2.56459 1.36097,-4.28801 8.08315,-3.85285 9.19963,0.59554 2.4927,9.93172 -14.17886,12.41462 -18.23152,2.71523 -2.26939,-5.43141 0.0807,-12.37282 5.27612,-15.58375 2.74806,-1.69839 4.43789,-2.02312 8.20576,-1.57687 9.77759,1.15801 16.1114,6.89776 17.64798,15.99272 l 0.69606,4.11994 1.877079,-2.3181 c 2.49375,-3.07965 2.36743,-5.09485 -0.592789,-9.45697 -2.59134,-3.81856 -2.28596,-4.25762 1.863889,-2.67985 3.00041,1.14076 6.60598,7.70819 6.60598,12.03258 0,4.19891 -2.40559,9.61923 -4.8496,10.92723 -1.11041,0.59427 -4.185999,1.09619 -6.834659,1.11538 -6.92137,0.0501 -19.32197,2.43193 -24.43329,4.69291 -2.41433,1.06797 -6.07556,3.53175 -8.13607,5.47506 -2.06051,1.94331 -3.74412,3.25516 -3.74135,2.91522 z"
         id="path42" />
      <path
         style="fill:#000000"
         d="m 177.77286,469.86677 c -18.77111,-2.73985 -37.0444,-8.13704 -46.39388,-13.70288 -1.925,-1.14597 -7.43198,-4.97535 -12.23772,-8.50974 -4.80575,-3.53439 -10.99808,-7.28502 -13.76073,-8.33475 -10.671919,-4.05501 -26.410509,-1.7864 -44.501549,6.4146 -10.81155,4.90107 -18.61721,5.78717 -28.55406,3.24147 -6.58626,-1.68732 -18.62607,-6.98241 -13.83887,-6.08631 8.59732,1.6093 19.85622,1.67896 27.1544,0.16801 8.90699,-1.84402 11.09939,-2.86407 22.15873,-10.30974 10.82238,-7.28614 18.87374,-9.71064 30.41501,-9.15884 11.029799,0.52734 15.350009,2.54926 26.262669,12.29131 13.75829,12.28242 25.32749,16.80588 42.84387,16.75159 11.9189,-0.0369 21.20069,-1.99961 27.92353,-5.90455 3.96197,-2.30129 4.83133,-2.44341 9.40943,-1.53821 8.58452,1.69737 13.53598,0.035 18.09872,-6.07627 3.11328,-4.16991 3.43937,-13.48316 0.6461,-18.45312 -3.76276,-6.69493 -9.90991,-8.90794 -15.99832,-5.7595 -3.08885,1.59731 -4.3608,4.27184 -4.22941,8.89317 0.10645,3.74387 2.2082,6.09745 2.2082,2.47279 0,-5.45441 7.94047,-7.98201 11.85972,-3.77519 2.41832,2.59576 3.00551,5.50136 1.94154,9.60735 -2.71511,10.47796 -18.91632,9.67634 -24.25994,-1.20035 -5.59945,-11.39742 1.12739,-25.46004 14.33081,-29.9589 5.62382,-1.91623 9.48229,-1.92809 15.71894,-0.0483 3.49868,1.05454 5.01825,1.1575 5.28946,0.3584 0.88536,-2.60861 7.55925,-8.87101 11.43304,-10.72813 5.90588,-2.83131 13.67922,-3.65178 19.40621,-2.04833 5.84847,1.63747 12.27019,7.79916 14.17586,13.60184 1.18601,3.61137 1.84259,4.25254 4.95206,4.83588 5.24895,0.98471 8.77304,3.94081 10.6938,8.97025 2.19169,5.73885 1.31528,10.51987 -2.65644,14.49159 -4.00809,4.00809 -9.37125,4.18358 -13.80627,0.45175 -2.84018,-2.38985 -3.12048,-2.44705 -3.67541,-0.75 -5.49597,16.80751 -20.25577,30.72737 -38.90338,36.68954 -13.8681,4.43401 -36.21076,5.71561 -54.10612,3.10358 z"
         id="path41" />
      <path
         style="fill:#000000"
         d="m 337.52574,487.3829 c -5.44204,-1.12891 -12.1576,-5.00783 -15.45543,-8.92707 -7.26005,-8.62809 -5.32027,-20.62578 4.0697,-25.17139 7.91403,-3.83111 15.85767,-0.13528 16.93247,7.87793 0.70731,5.27336 1.87652,5.41563 3.376,0.4108 0.9507,-3.17316 0.87126,-4.37624 -0.45881,-6.9483 -3.22491,-6.2363 -12.59602,-11.36696 -24.28859,-13.29794 -9.00398,-1.48698 -19.44054,0.57893 -27.52849,5.44924 -6.82206,4.10803 -23.63978,16.54615 -29.14682,21.55652 -5.70545,5.1909 -12.04456,8.68432 -19.14679,10.55162 -7.55793,1.98712 -33.09784,2.05242 -42.5,0.10867 l -6.5,-1.34377 6.63953,-0.1192 c 13.60089,-0.24418 32.55997,-5.22481 45.2277,-11.88152 8.64307,-4.5418 18.45576,-14.18899 22.31914,-21.94272 l 2.88741,-5.79496 4.6573,0.90717 c 9.53576,1.85743 18.82509,-4.93045 20.3114,-14.84191 0.48664,-3.24511 0.10499,-5.51397 -1.59045,-9.45514 -2.34387,-5.44846 -9.50501,-12.70884 -13.53204,-13.71956 -1.31383,-0.32975 -2.5099,-1.61264 -2.88062,-3.08973 -0.34867,-1.38921 -3.02857,-4.92047 -5.95533,-7.84722 -6.77524,-6.77525 -13.36536,-8.98572 -24.31943,-8.15726 -10.25507,0.77559 -18.06256,5.71884 -20.52438,12.99487 -0.14724,0.43517 -1.74571,0.0539 -3.55215,-0.84728 -1.80644,-0.90117 -5.85026,-1.67832 -8.98626,-1.72699 -8.15449,-0.12657 -14.90013,3.10975 -21.6275,10.37611 -11.27296,12.17615 -12.46956,25.17695 -3.27594,35.59249 l 1.92915,2.18554 -10.36377,3.25841 c -8.59355,2.70185 -11.98644,3.26395 -19.86376,3.29081 -11.52777,0.0393 -12.21155,-0.27254 -36.78728,-16.77745 -18.85716,-12.66435 -23.42849,-14.42783 -34.421739,-13.2788 -9.00586,0.9413 -16.20217,3.84939 -32.07558,12.96204 -8.09839,4.64915 -16.18483,8.70498 -17.96987,9.01297 -13.07097,2.25524 -16.72588,1.55952 -6.74553,-1.28403 8.15937,-2.32473 15.57985,-6.82444 23.99476,-14.55023 9.00302,-8.26573 14.80554,-11.69681 23.69853,-14.01314 14.06636,-3.66382 29.624429,0.10722 40.131039,9.72716 5.89473,5.39726 12.24217,8.01274 20.7888,8.56608 8.78225,0.5686 13.34989,-0.83983 17.2948,-5.33284 4.32382,-4.92456 5.44107,-9.91385 3.60472,-16.09753 -1.96004,-6.60016 -6.65698,-10.86571 -12.51265,-11.36343 -6.37665,-0.542 -8.303,0.0766 -12.11765,3.89124 -4.21457,4.21458 -4.77146,6.83106 -2.26734,10.65283 2.35667,3.59673 3.74724,3.08455 3.06358,-1.12838 -0.47489,-2.9264 -0.13646,-4.03984 1.8237,-6 4.97408,-4.97408 13.34295,-1.99308 15.60552,5.5587 1.01024,3.37187 0.88087,4.42643 -1.02628,8.36608 -2.51338,5.19194 -5.53292,6.68068 -13.48075,6.64646 -8.46671,-0.0365 -16.01077,-4.63316 -18.53417,-11.29314 -1.50581,-3.97426 -1.3241,-12.28933 0.33837,-15.48456 3.10047,-5.959 10.81334,-10.00668 16.79003,-8.81134 2.59058,0.51812 2.91426,0.35692 2.29482,-1.1429 -7.14047,-17.28885 7.5201,-33.57164 24.0198,-26.67763 3.73522,1.56067 3.77,1.55283 7.00116,-1.57894 5.09764,-4.94082 13.52739,-5.39755 18.25911,-0.98928 1.87793,1.74957 2.23069,3.13743 2.23384,8.7887 0.003,4.82515 0.53088,7.55409 1.87959,9.71105 4.86027,7.77289 10.17566,10.90058 18.61667,10.95447 10.22325,0.0653 18.5,-6.59539 18.5,-14.88772 0,-6.79839 -5.67092,-13.56675 -11.36699,-13.56675 h -3.09728 l 3.60612,2.45042 c 4.13139,2.80735 4.85815,4.22799 4.85815,9.49651 0,9.02694 -11.63891,15.24569 -19.20051,10.25896 -1.48528,-0.97952 -3.94749,-3.56405 -5.47159,-5.74341 -2.38728,-3.41367 -2.7709,-4.93199 -2.76979,-10.96248 9.6e-4,-5.21989 0.54262,-8.01721 2.13001,-11 2.57018,-4.82955 6.81149,-8.99479 10.62698,-10.43638 4.42043,-1.67016 11.86373,-1.26668 16.05529,0.8703 l 3.79328,1.93392 3.36479,-3.46481 c 7.9071,-8.14214 21.99788,-11.04583 33.42044,-6.88694 7.04514,2.56509 15.03002,10.2193 17.54491,16.81835 1.69257,4.44129 2.05237,4.77778 4.4243,4.13773 1.42004,-0.38319 5.34007,-0.90718 8.71118,-1.16442 13.37979,-1.02099 22.73709,7.76797 22.82879,21.44225 0.0341,5.08993 0.34407,6.25 1.66979,6.25 2.90634,0 8.30812,2.76871 11.05851,5.66809 7.96287,8.39422 5.78218,23.0024 -4.19203,28.08191 -7.98919,4.06861 -20.42222,1.94352 -26.03592,-4.45013 -5.95028,-6.777 -3.01201,-17.47694 5.57776,-20.31181 1.9089,-0.63 4.93168,-0.89178 6.71727,-0.58174 2.99533,0.5201 2.90857,0.40322 -1.12123,-1.5105 -5.49233,-2.60825 -9.94644,-1.92776 -14.01546,2.14125 -5.71205,5.71205 -6.65112,15.59502 -2.09043,21.99993 2.82182,3.96288 10.87714,7.7833 19.53963,9.26712 8.51899,1.45924 16.31965,-0.1219 22.43403,-4.54722 3.98388,-2.88336 5.2455,-3.25605 11,-3.24946 5.56292,0.006 7.13558,0.43886 10.90871,3 5.90537,4.00846 8.20894,7.35673 8.82565,12.82819 0.41965,3.72312 0.0231,5.40251 -2.15211,9.11424 -1.46661,2.50257 -3.04456,4.55013 -3.50657,4.55013 -0.462,0 -0.23778,1.6875 0.49826,3.75 0.73605,2.0625 1.35802,7.37414 1.38217,11.80365 0.0365,6.69792 -0.38828,8.9209 -2.52336,13.20546 -5.80068,11.64044 -19.16087,17.93569 -32.28599,15.21298 z"
         id="path38" />
    </g>
    <path
       style="fill:#000000"
       d="m 659.15582,751.79264 c -16.0789,-2.91515 -31.0052,-9.94714 -47.7768,-22.50845 -26.0049,-19.47662 -35.7638,-23.87338 -52.9883,-23.87338 -14.4158,0 -25.8701,3.0394 -46.8493,12.43151 -27.72325,12.41135 -47.44412,13.67381 -68.93447,4.41296 -3.99962,-1.72356 -7.14455,-3.26123 -6.98873,-3.41704 0.15581,-0.15582 3.42822,0.41531 7.27203,1.26916 9.46088,2.10161 25.28982,2.07743 33.48873,-0.0512 8.74149,-2.26946 20.47894,-7.98483 33.69784,-16.40863 26.8243,-17.09394 38.6239,-21.72424 55.3022,-21.70125 15.9229,0.022 19.8371,1.38483 57.5,20.02113 34.6943,17.16744 46.7568,20.39013 63.5942,16.99026 16.0546,-3.24181 26.5418,-10.25898 31.6593,-21.1839 2.4486,-5.22725 2.7465,-7.00167 2.7465,-16.36304 0,-9.82463 -0.2099,-10.9289 -3.2621,-17.16813 -3.9857,-8.14757 -11.0639,-14.82961 -19.0363,-17.97096 -4.4744,-1.76301 -7.7465,-2.25089 -15.2016,-2.26661 -8.9,-0.0188 -9.8977,0.19323 -15.7956,3.35644 -7.3414,3.93737 -11.5781,8.8366 -14.2735,16.50534 -2.709,7.70754 -2.5048,13.71894 0.6637,19.54052 5.1144,9.39678 13.439,12.21956 19.3462,6.56008 3.889,-3.7259 4.7225,-8.16154 2.6672,-14.19354 -0.8812,-2.58627 -1.4087,-4.89584 -1.1721,-5.13239 0.9798,-0.97981 7.4159,2.01043 9.7769,4.54236 3.6457,3.9097 4.7872,6.55115 4.7872,11.07824 0,11.95351 -12.3775,24.18334 -24.4282,24.13678 -8.6412,-0.0334 -19.2001,-4.98231 -23.8935,-11.19878 -4.2139,-5.58153 -5.2047,-10.69973 -3.6581,-18.89678 1.0493,-5.56069 1.0783,-7.45559 0.134,-8.74567 -0.663,-0.90579 -2.4256,-4.1219 -3.9169,-7.1469 -3.5755,-7.25278 -3.7899,-17.39292 -0.4995,-23.62821 2.9621,-5.61301 9.863,-11.46123 16.3708,-13.8734 8.2,-3.03947 20.3003,-2.6569 29.3914,0.92927 10.4,4.10255 11.9614,4.21758 16.313,1.20191 6.1933,-4.29195 12.3071,-5.8845 20.9677,-5.46177 9.4004,0.45883 15.7224,3.32473 21.2921,9.65224 5.8466,6.64214 7.3376,12.37211 6.5583,25.20333 l -0.6479,10.66715 3.3618,4.40474 c 6.8434,8.96668 8.1409,12.5393 8.1372,22.40474 0,8.14215 -0.3024,9.5719 -3.1405,15 -4.4979,8.60265 -14.2811,20.57776 -22.1014,27.05299 -9.034,7.48022 -18.6281,11.98123 -29.6271,13.89929 -10.8108,1.88525 -30.2343,1.85175 -40.8364,-0.0705 z"
       id="path37" />
    <g
       id="g57">
      <path
         style="fill:#000000"
         d="m 234.26592,763.95993 c -7.41351,-2.04425 -13.88589,-5.70397 -19.17498,-10.84225 l -4.93382,-4.79312 -7.98008,2.01799 c -18.01489,4.55559 -38.10672,5.16208 -53.29806,1.60887 -10.83121,-2.53339 -25.79799,-10.35535 -34.12232,-17.83305 -6.55967,-5.89252 -7.78414,-6.56241 -15.499999,-8.47993 -20.73925,-5.15404 -36.43397,-5.36664 -52.37768,-0.70954 -9.58541,2.79987 -20.33108,8.09184 -24.5953,12.11256 -2.20818,2.08209 -2.77271,2.23332 -3.78475,1.01388 -2.27239,-2.73805 23.53169,-23.59152 37.53026,-30.32994 8.80138,-4.23668 18.75864,-6.0749 39.84979,-7.35671 27.492289,-1.67083 32.754239,-4.6928 36.492589,-20.95788 2.91064,-12.66383 10.94644,-23.04422 20.15557,-26.03636 2.41756,-0.78549 8.60617,-1.44706 13.92343,-1.48844 l 9.57159,-0.0745 3.70773,-4.10402 c 5.14411,-5.69392 11.09816,-8.2967 18.97926,-8.2967 3.49358,0 8.43479,0.62684 10.98046,1.39297 4.60076,1.38463 4.63917,1.37638 6.40893,-1.37548 4.24418,-6.59941 12.66639,-11.01749 21.00272,-11.01749 3.79822,0 5.1603,-0.6069 9.05381,-4.03411 17.31903,-15.24482 41.44846,-15.7128 59.85798,-1.16091 4.2308,3.34426 5.78975,3.94539 11.6514,4.49275 12.43329,1.16104 20.51435,6.13668 25.75695,15.85896 3.30582,6.13055 3.42117,6.71762 3.43906,17.50308 l 0.0185,11.15977 6.29834,6.29857 c 15.7403,15.74087 18.32164,35.0707 7.20344,53.94135 -4.27087,7.24884 -10.72974,13.74078 -16.70216,16.78768 -4.30248,2.19496 -17.29076,5.15286 -22.62647,5.15286 -5.05731,0 -20.11129,-2.78633 -26.24899,-4.8584 l -5.36614,-1.8116 -2.77901,2.9708 c -4.41986,4.72488 -14.08425,10.55868 -21.06222,12.71396 -7.52115,2.32304 -23.83416,2.60128 -31.32985,0.53436 z"
         id="path36" />
      <path
         style="fill:#000000"
         d="m 270.43187,758.2199 c 4.09591,-2.03 9.9653,-5.94171 13.04308,-8.6927 l 5.59597,-5.0018 7.61145,2.41708 c 20.88056,6.63082 40.97059,4.74586 52.39324,-4.91582 4.97824,-4.21077 11.11485,-14.18473 13.44271,-21.8487 4.16832,-13.72328 0.53872,-26.67299 -10.88148,-38.82304 l -6.001,-6.38451 -2.62657,5.18328 c -3.45395,6.81604 -7.99036,11.87379 -13.03561,14.53371 -9.71665,5.12275 -27.23671,0.75477 -33.21649,-8.2813 -7.44635,-11.25219 -1.65699,-29.43462 10.53519,-33.08749 11.34582,-3.39929 24.08662,4.95282 24.08662,15.78974 0,6.8384 -4.97063,15.40165 -7.64953,13.17836 -1.09527,-0.90899 -0.76706,-1.77634 1.7623,-4.65712 2.82503,-3.21753 3.06802,-4.02519 2.66675,-8.86394 -0.49641,-5.98599 -2.28279,-8.54857 -7.98968,-11.46125 -11.32828,-5.78172 -23.78984,3.17894 -23.78984,17.10641 0,11.74058 9.47068,19.36645 24.01324,19.33568 5.66894,-0.012 11.35056,-2.625 15.12486,-6.95597 6.38792,-7.33008 9.9194,-22.25462 7.9171,-33.45881 -1.38749,-7.76391 -4.11189,-12.62925 -9.42528,-16.83204 -4.47179,-3.5371 -8.57489,-4.88801 -17.53745,-5.77405 -5.62383,-0.55597 -7.17311,-1.21291 -12.667,-5.37123 -9.36844,-7.09094 -15.9219,-9.33589 -27.42547,-9.39487 -8.99024,-0.0461 -9.90244,0.15024 -17,3.65905 -4.125,2.03927 -9.3,5.5047 -11.5,7.70095 -3.57137,3.56527 -4.53579,3.99903 -9,4.04781 -2.75,0.03 -6.71935,0.53207 -8.82078,1.1156 -4.52975,1.25784 -10.95921,6.7754 -12.64903,10.855 l -1.20351,2.90552 -5.56989,-1.91632 c -12.19519,-4.19576 -23.55015,-1.60632 -29.75679,6.78588 l -3,4.05639 -8.53323,-0.51327 c -10.93041,-0.65747 -18.41114,1.35446 -24.08053,6.47642 -4.93954,4.46257 -7.2022,8.76243 -9.89122,18.79685 -2.40496,8.97439 -3.90749,12.15571 -7.15001,15.1388 -6.13239,5.64176 -14.66314,7.58597 -38.845009,8.85302 -21.28358,1.11519 -31.07358,4.30904 -46.33096,15.11485 -8.20949,5.81425 -9.33122,7.51391 -3.29426,4.99151 6.35758,-2.65637 22.36769,-5.61686 30.35777,-5.61358 8.47064,0.003 21.89882,2.07159 32.543949,5.01216 5.35877,1.48029 7.97394,2.94194 12.5,6.98639 8.00693,7.15493 14.82821,11.50007 23.51256,14.97745 11.89481,4.76291 16.76453,5.53167 34.21094,5.40068 14.25919,-0.10706 17.23601,-0.44146 27.36031,-3.07351 l 11.36031,-2.95337 4.9531,5.23718 c 5.05849,5.3486 12.30456,9.58772 19.37051,11.33219 2.17567,0.53714 9.15457,0.88685 15.50866,0.77713 11.12005,-0.19202 11.83191,-0.33778 19,-3.8904 z"
         id="path35" />
      <path
         style="fill:#000000"
         d="m 226.46451,687.6937 c -5.90336,-2.08509 -12.35615,-8.69404 -14.42934,-14.77853 -2.97204,-8.72244 -1.55609,-26.50436 2.1105,-26.50436 1.09212,0 1.27004,0.67891 0.72068,2.75 -5.58449,21.05353 2.79957,36.07928 20.69576,37.0905 11.8527,0.66974 20.08161,-4.3167 22.956,-13.91054 1.42823,-4.76701 0.12537,-11.34539 -3.16105,-15.96075 -4.61246,-6.47759 -16.11479,-7.49945 -22.29153,-1.98036 -2.87923,2.57267 -3.18759,3.40202 -3.19728,8.59945 -0.0127,6.83639 -1.96638,8.46615 -2.97713,2.48359 -1.79485,-10.62367 7.5898,-19.33341 18.98958,-17.6239 15.84206,2.37566 21.73588,23.94718 9.65155,35.32493 -6.46554,6.0875 -19.06624,8.04255 -29.06774,4.50997 z"
         id="path34" />
      <path
         style="fill:#000000"
         d="m 213.37898,745.00833 c 0,-0.73685 1.55102,-2.40249 3.44671,-3.70144 4.74778,-3.25323 7.55329,-8.60709 7.55329,-14.4142 0,-5.08959 -2.7239,-10.74808 -5.77024,-11.98681 -8.2075,-3.33741 -13.45336,-2.32782 -19.32102,3.7184 -2.84122,2.92768 -4.29562,3.79965 -5.06101,3.03426 -1.72115,-1.72115 7.15091,-9.96925 11.62657,-10.80889 9.02153,-1.69245 17.44379,1.72755 20.13884,8.1777 3.26128,7.80533 0.5471,18.93772 -5.75429,23.60166 -4.38095,3.24254 -6.85885,4.10211 -6.85885,2.37932 z"
         id="path33" />
    </g>
    <g
       id="g54">
      <path
         style="fill:#000000"
         d="m 240.96275,1055.8302 c 17.64689,-11.0791 29.51326,-22.6194 36.24474,-35.249 3.25653,-6.1099 7.17149,-18.8842 7.17149,-23.40031 0,-1.5235 0.53292,-2.7701 1.18427,-2.7701 0.65136,0 3.04352,-0.9 5.31591,-2.0001 7.30788,-3.5376 10.41539,-12.4795 7.09699,-20.4215 -2.32213,-5.5577 -8.35399,-11.4469 -13.15913,-12.848 -3.0596,-0.8922 -4.99631,-2.2768 -6.6372,-4.7451 -1.27434,-1.9169 -4.33835,-4.5251 -6.80891,-5.796 -3.75177,-1.9299 -5.72785,-2.2595 -11.99253,-2 -6.26429,0.2595 -8.26634,0.7953 -12.14634,3.2502 -4.91289,3.1086 -7.65373,6.7477 -9.44173,12.5361 -1.01737,3.2936 -1.42313,3.566 -6.19474,4.1585 -19.48682,2.4197 -30.46452,22.1207 -22.07537,39.61711 2.05041,4.2764 8.21974,10.2488 10.58662,10.2488 2.37424,0 1.28492,1.5974 -5.97784,8.7656 -15.39514,15.1948 -29.32151,23.2081 -49.25,28.3388 -7.48161,1.9262 -11.615,2.322 -24.5,2.3465 -16.58824,0.032 -22.1069,-0.8303 -32.86437,-5.1326 -9.812879,-3.9246 -18.431979,-9.9659 -29.635629,-20.7723 -5.5,-5.305 -12.32821,-11.1993 -15.1738,-13.0986 -9.18493,-6.1303 -21.63587,-10.6475 -34.29728,-12.4433 -4.07491,-0.5779 -7.57296,-1.2148 -7.77344,-1.4152 -0.87999,-0.88 13.19933,-2.5889 21.32961,-2.5889 9.41303,0 18.69883,2.0619 25.94072,5.7601 2.1858,1.1163 10.20893,6.6077 17.82917,12.2033 15.817279,11.6147 22.952309,15.5358 33.036629,18.1556 8.96829,2.33 24.1484,2.4533 33.91098,0.2755 14.40308,-3.2129 30.70093,-12.9841 37.10017,-22.2429 7.75299,-11.2176 6.09554,-23.75201 -3.73072,-28.21341 -7.24986,-3.2917 -13.47976,-2.1445 -16.12415,2.9692 -2.94123,5.6877 -0.93979,13.09261 3.53875,13.09261 1.9025,0 1.89236,-0.1093 -0.28292,-3.05161 -2.09286,-2.8307 -2.14707,-3.2459 -0.74901,-5.7368 3.5894,-6.3949 11.12368,-5.3754 14.78308,2.0005 4.29581,8.65851 -0.56504,16.79831 -10.02205,16.78241 -12.51371,-0.021 -20.71372,-10.0638 -18.37896,-22.50921 0.81043,-4.3199 5.64442,-10.0378 9.25147,-10.9432 l 2.66669,-0.6692 -2.92747,-1.9174 c -4.06033,-2.6593 -6.42747,-7.5352 -6.42747,-13.2395 0,-7.9849 4.1938,-13.4134 11.90661,-15.412 2.95353,-0.7653 3.35901,-1.2832 3.55691,-4.5428 0.26839,-4.4205 1.91321,-6.6015 6.39007,-8.4728 7.10444,-2.9696 14.1252,1.0226 20.59598,11.7116 7.48187,12.3592 9.48893,14 17.12505,14 9.53531,0 15.93149,-6.9141 15.11862,-16.3429 -0.57963,-6.7234 -4.55152,-10.6982 -11.3216,-11.3299 l -4.87164,-0.4546 4.17204,1.9799 c 7.23133,3.4318 9.47286,9.7079 5.73009,16.0439 -3.24804,5.4985 -8.43854,6.4444 -14.82502,2.7017 -5.80165,-3.4 -8.79394,-9.183 -9.32466,-18.0212 -0.36423,-6.0656 -0.0801,-7.72 1.98807,-11.5769 1.32716,-2.475 4.32884,-5.85 6.67039,-7.5 3.61685,-2.5486 5.18503,-2.99998 10.42323,-2.99998 3.39122,0 7.02796,0.22498 8.08164,0.49998 1.51068,0.3943 2.10993,-0.2324 2.83391,-2.96345 4.05283,-15.28864 26.11892,-17.98577 34.82563,-4.25671 1.56666,2.47037 3.03141,4.99302 3.25498,5.60589 0.2359,0.64666 1.61581,-0.0131 3.2881,-1.57209 5.31265,-4.95274 12.26389,-6.14312 19.12712,-3.27548 6.94672,2.90252 10.30935,7.69054 11.21002,15.96184 l 0.54446,5 4.73618,0.5445 c 11.58431,1.3316 18.35807,13.0543 13.74268,23.783 -5.14517,11.9603 -20.92104,14.8767 -26.95323,4.9827 -2.27687,-3.7345 -2.53665,-7.0458 -0.91721,-11.6913 1.2217,-3.5046 6.07701,-6.6391 8.73184,-5.6372 1.53821,0.5805 1.5397,0.505 0.0203,-1.0314 -3.19201,-3.2277 -11.61145,1.1341 -13.92254,7.2128 -2.32235,6.1082 -0.39923,14.8084 4.21158,19.0531 2.87151,2.6435 9.9223,5.2838 14.11012,5.2838 7.74561,0 11.42502,-2.281 21.36611,-13.2459 5.51892,-6.0873 15.40777,-6.7435 21.2215,-1.4082 5.51069,5.0572 7.29124,12.1219 4.99052,19.8011 -1.04051,3.4729 -0.94276,4.1131 0.93381,6.116 1.15279,1.2304 3.24637,4.712 4.65239,7.737 4.92323,10.59211 2.74542,22.79301 -5.56752,31.19111 -14.44636,14.5945 -41.0363,6.7449 -42.63951,-12.5877 -0.80936,-9.75991 4.64152,-15.59261 14.57844,-15.59961 6.00037,0 9.62993,2.5827 10.7474,7.66011 1.11099,5.048 1.80869,6.0479 2.20658,3.1624 0.61534,-4.46241 -1.57864,-10.50481 -4.79775,-13.21351 -3.76243,-3.1658 -8.45392,-4.0932 -13.64142,-2.6963 -7.30312,1.9665 -10.36777,5.0262 -19.77933,19.74701 -4.96701,7.7691 -11.64437,17.2106 -14.83858,20.9811 -12.81248,15.1241 -27.34272,24.9841 -43.69235,29.6489 -15.73029,4.4881 -16.28982,4.3247 -6.41623,-1.8741 z"
         id="path3" />
      <path
         style="fill:#000000"
         d="m 134.87898,1080.8171 c -22.35907,-3.9528 -36.400849,-12.4702 -61.976609,-37.5935 -19.57902,-19.2327 -28.10204,-25.3961 -43.51271,-31.4659 l -3.51068,-1.3828 5,0.5267 c 16.12951,1.6989 33.7886,11.8913 55.44322,32.0003 13.846309,12.8581 21.544039,17.0394 35.122809,19.0783 41.39544,6.2155 79.8639,-7.4526 101.35975,-36.0139 4.74609,-6.3061 5.99746,-7.3675 9.31005,-7.8972 3.86375,-0.6179 8.78674,-4.745 11.14417,-9.3425 1.59973,-3.1199 1.38282,-9.90681 -0.42855,-13.40961 -1.84593,-3.5697 -6.93457,-6.8972 -10.55543,-6.9024 -3.66218,-0.01 -7.89602,4.1973 -7.89602,7.8377 0,1.6153 0.92161,3.99931 2.04802,5.29781 l 2.04802,2.3607 -0.6003,-3.1262 c -0.41856,-2.17981 -0.10872,-3.61791 1.0234,-4.75001 2.00757,-2.0076 2.47923,-2.0136 5.25835,-0.067 3.3379,2.338 3.09587,8.92231 -0.46458,12.63861 -2.12446,2.2175 -3.58317,2.8047 -6.96667,2.8047 -8.29898,0 -14.26791,-9.7809 -13.06739,-21.41281 1.17723,-11.4063 10.54725,-19.401 21.4229,-18.2785 4.86128,0.5017 5.29825,0.3768 5.29825,-1.5149 0,-7.7887 5.51316,-15.3453 13.36018,-18.3121 4.22712,-1.5982 5.46218,-1.6765 9.48189,-0.6014 5.3031,1.4183 10.73075,5.1985 11.65772,8.1191 0.43008,1.355 1.51294,2.0006 3.35571,2.0006 4.15267,0 11.36318,4.101 13.88643,7.8979 2.44344,3.6768 2.91373,8.9228 1.23231,13.7462 -1.12609,3.2303 -8.12215,8.3516 -11.42441,8.363 -1.71818,0.01 -2.32775,1.1789 -3.76756,7.25 -2.29245,9.66631 -9.55673,23.84851 -16.0258,31.28761 -11.2806,12.972 -30.10793,26.6264 -50.8684,36.892 -27.29029,13.4944 -52.74448,18.1494 -76.38807,13.9696 z"
         id="path2" />
    </g>
  </g>
</svg>
