<svg xmlns="http://www.w3.org/2000/svg" viewBox="0 0 240 180" fill="none">
  <!-- Irregular rectangular seal: Lian Tong -->
  
  <!-- Outer border - organic irregular rectangle -->
  <path 
    d="M12 15 
       C22 10, 55 12, 120 10 
       C185 12, 218 10, 228 15 
       C235 22, 237 35, 235 55
       C237 90, 235 125, 237 145 
       C235 158, 232 168, 228 170
       C218 176, 185 174, 120 176 
       C55 174, 22 176, 12 170
       C5 165, 3 155, 5 138 
       C3 105, 5 65, 3 45 
       C5 30, 8 20, 12 15 Z"
    fill="none"
    stroke="#C52F2F"
    stroke-width="5"
  />
  
  <!-- Inner border -->
  <path 
    d="M25 28 
       C34 24, 60 25, 120 24 
       C180 25, 206 24, 215 28 
       C221 33, 223 44, 221 60
       C223 90, 221 120, 223 138 
       C221 148, 218 156, 215 158
       C206 163, 180 161, 120 163 
       C60 161, 34 163, 25 158
       C19 154, 17 145, 19 130 
       C17 100, 19 70, 17 52 
       C19 40, 22 32, 25 28 Z"
    fill="none"
    stroke="#C52F2F"
    stroke-width="2.5"
  />
  
  
  <!-- === LEFT: Lian - 辶 embracing 車 === -->
  
  <!-- 辶 dot - upper left -->
  <path d="M38 42 Q34 39, 36 45 Q34 53, 40 57 Q46 53, 42 47 Q44 41, 38 42 Z" fill="#C52F2F"/>
  
  <!-- 辶 vertical curve - goes down left side -->
  <path d="M40 58 Q36 65, 38 78 Q36 98, 40 115 Q38 128, 44 132 Q50 128, 46 118 Q42 100, 44 80 Q46 68, 40 58 Z" fill="#C52F2F"/>
  
  <!-- 辶 horizontal sweep - goes under and right -->
  <path d="M44 130 Q38 126, 48 122 Q70 115, 95 118 Q112 115, 118 128 Q124 140, 115 144 Q106 138, 92 134 Q65 138, 52 134 Q44 136, 44 130 Z" fill="#C52F2F"/>
  
  <!-- 車 component - adjusted position (moved up 8) -->
  <!-- Top horizontal -->
  <path d="M52 52 Q60 49, 78 50 Q96 49, 105 52 Q103 56, 94 54 Q76 56, 62 54 Q54 56, 52 52 Z" fill="#C52F2F"/>
  
  <!-- Center vertical of 車 -->
  <path d="M76 50 Q73 54, 74 62 L74 108 Q74 114, 78 112 Q82 110, 81 104 L81 60 Q82 54, 76 50 Z" fill="#C52F2F"/>
  
  <!-- Box left vertical -->
  <path d="M56 60 Q53 64, 54 72 L54 98 Q54 104, 58 102 L59 75 Q60 66, 56 60 Z" fill="#C52F2F"/>
  
  <!-- Box right vertical -->
  <path d="M100 60 Q103 64, 102 72 L102 98 Q102 104, 98 102 L97 75 Q96 66, 100 60 Z" fill="#C52F2F"/>
  
  <!-- Horizontal bars inside box -->
  <path d="M56 65 Q66 62, 78 63 Q90 62, 102 65 Q100 69, 92 67 Q78 69, 64 67 Q58 69, 56 65 Z" fill="#C52F2F"/>
  <path d="M56 82 Q66 79, 78 80 Q90 79, 102 82 Q100 86, 92 84 Q78 86, 64 84 Q58 86, 56 82 Z" fill="#C52F2F"/>
  <path d="M54 98 Q66 95, 78 96 Q90 95, 104 98 Q102 102, 92 100 Q78 102, 64 100 Q56 102, 54 98 Z" fill="#C52F2F"/>
  
  
  <!-- === RIGHT: Tong - 辶 embracing 甬 === -->
  
  <!-- 辶 dot - upper left -->
  <path d="M130 42 Q126 39, 128 45 Q126 53, 132 57 Q138 53, 134 47 Q136 41, 130 42 Z" fill="#C52F2F"/>
  
  <!-- 辶 vertical curve - goes down left side -->
  <path d="M132 58 Q128 65, 130 78 Q128 98, 132 115 Q130 128, 136 132 Q142 128, 138 118 Q134 100, 136 80 Q138 68, 132 58 Z" fill="#C52F2F"/>
  
  <!-- 辶 horizontal sweep - goes under and right -->
  <path d="M136 130 Q130 126, 140 122 Q165 115, 195 118 Q215 115, 222 128 Q228 140, 218 144 Q208 138, 190 134 Q160 138, 145 134 Q136 136, 136 130 Z" fill="#C52F2F"/>
  
  <!-- 甬 component - adjusted position (moved up 8) -->
  <!-- Top lid (wider) -->
  <path d="M142 52 Q152 48, 175 50 Q198 48, 210 52 Q208 56, 196 54 Q175 56, 156 54 Q145 56, 142 52 Z" fill="#C52F2F"/>
  
  <!-- Center vertical of 甬 -->
  <path d="M174 50 Q171 54, 172 62 L172 105 Q172 112, 176 110 Q180 108, 179 102 L179 60 Q180 54, 174 50 Z" fill="#C52F2F"/>
  
  <!-- 甬 box - left vertical -->
  <path d="M150 62 Q147 66, 148 74 L148 92 Q148 98, 152 96 L153 77 Q154 68, 150 62 Z" fill="#C52F2F"/>
  
  <!-- 甬 box - right vertical -->
  <path d="M198 62 Q201 66, 200 74 L200 92 Q200 98, 196 96 L195 77 Q194 68, 198 62 Z" fill="#C52F2F"/>
  
  <!-- 甬 horizontal bars -->
  <path d="M150 66 Q162 63, 175 64 Q188 63, 200 66 Q198 70, 190 68 Q175 70, 160 68 Q152 70, 150 66 Z" fill="#C52F2F"/>
  <path d="M150 80 Q162 77, 175 78 Q188 77, 200 80 Q198 84, 190 82 Q175 84, 160 82 Q152 84, 150 80 Z" fill="#C52F2F"/>
  <path d="M148 94 Q162 91, 175 92 Q188 91, 202 94 Q200 98, 190 96 Q175 98, 160 96 Q150 98, 148 94 Z" fill="#C52F2F"/>
  
  <!-- 甬 bottom legs -->
  <path d="M158 96 Q155 100, 156 108 L156 118 Q156 124, 160 122 L161 110 Q162 102, 158 96 Z" fill="#C52F2F"/>
  <path d="M190 96 Q193 100, 192 108 L192 118 Q192 124, 188 122 L187 110 Q186 102, 190 96 Z" fill="#C52F2F"/>
</svg>
