<svg xmlns="http://www.w3.org/2000/svg" viewBox="0 0 240 180" fill="none">
  <!-- Irregular rectangular seal: Lian Tong -->
  
  <!-- Outer border - organic irregular rectangle -->
  <path 
    d="M12 15 
       C22 10, 55 12, 120 10 
       C185 12, 218 10, 228 15 
       C235 22, 237 35, 235 55
       C237 90, 235 125, 237 145 
       C235 158, 232 168, 228 170
       C218 176, 185 174, 120 176 
       C55 174, 22 176, 12 170
       C5 165, 3 155, 5 138 
       C3 105, 5 65, 3 45 
       C5 30, 8 20, 12 15 Z"
    fill="none"
    stroke="#C52F2F"
    stroke-width="5"
  />
  
  <!-- Inner border -->
  <path 
    d="M25 28 
       C34 24, 60 25, 120 24 
       C180 25, 206 24, 215 28 
       C221 33, 223 44, 221 60
       C223 90, 221 120, 223 138 
       C221 148, 218 156, 215 158
       C206 163, 180 161, 120 163 
       C60 161, 34 163, 25 158
       C19 154, 17 145, 19 130 
       C17 100, 19 70, 17 52 
       C19 40, 22 32, 25 28 Z"
    fill="none"
    stroke="#C52F2F"
    stroke-width="2.5"
  />
  
  
  <!-- === LEFT: Lian - 辶 properly embracing 車 === -->
  
  <!-- 辶 dot - upper left -->
  <path d="M38 55 Q34 52, 36 58 Q34 66, 40 70 Q46 66, 42 60 Q44 54, 38 55 Z" fill="#C52F2F"/>
  
  <!-- 辶 vertical curve - goes down left side -->
  <path d="M40 72 Q36 78, 38 88 Q36 105, 40 118 Q38 128, 44 132 Q50 128, 46 120 Q42 108, 44 90 Q46 80, 40 72 Z" fill="#C52F2F"/>
  
  <!-- 辶 horizontal sweep - goes under and right -->
  <path d="M44 130 Q38 126, 48 122 Q70 115, 95 118 Q112 115, 118 128 Q124 140, 115 144 Q106 138, 92 134 Q65 138, 52 134 Q44 136, 44 130 Z" fill="#C52F2F"/>
  
  <!-- 車 component - positioned within the 辶 embrace -->
  <!-- Top horizontal -->
  <path d="M52 42 Q60 39, 78 40 Q96 39, 105 42 Q103 46, 94 44 Q76 46, 62 44 Q54 46, 52 42 Z" fill="#C52F2F"/>
  
  <!-- Center vertical of 車 -->
  <path d="M76 40 Q73 44, 74 52 L74 98 Q74 104, 78 102 Q82 100, 81 94 L81 50 Q82 44, 76 40 Z" fill="#C52F2F"/>
  
  <!-- Box left vertical -->
  <path d="M56 50 Q53 54, 54 62 L54 88 Q54 94, 58 92 L59 65 Q60 56, 56 50 Z" fill="#C52F2F"/>
  
  <!-- Box right vertical -->
  <path d="M100 50 Q103 54, 102 62 L102 88 Q102 94, 98 92 L97 65 Q96 56, 100 50 Z" fill="#C52F2F"/>
  
  <!-- Horizontal bars inside box -->
  <path d="M56 55 Q66 52, 78 53 Q90 52, 102 55 Q100 59, 92 57 Q78 59, 64 57 Q58 59, 56 55 Z" fill="#C52F2F"/>
  <path d="M56 72 Q66 69, 78 70 Q90 69, 102 72 Q100 76, 92 74 Q78 76, 64 74 Q58 76, 56 72 Z" fill="#C52F2F"/>
  <path d="M54 88 Q66 85, 78 86 Q90 85, 104 88 Q102 92, 92 90 Q78 92, 64 90 Q56 92, 54 88 Z" fill="#C52F2F"/>
  
  
  <!-- === RIGHT: Tong - 辶 properly embracing 甬 === -->
  
  <!-- 辶 dot - upper left -->
  <path d="M130 55 Q126 52, 128 58 Q126 66, 132 70 Q138 66, 134 60 Q136 54, 130 55 Z" fill="#C52F2F"/>
  
  <!-- 辶 vertical curve - goes down left side -->
  <path d="M132 72 Q128 78, 130 88 Q128 105, 132 118 Q130 128, 136 132 Q142 128, 138 120 Q134 108, 136 90 Q138 80, 132 72 Z" fill="#C52F2F"/>
  
  <!-- 辶 horizontal sweep - goes under and right -->
  <path d="M136 130 Q130 126, 140 122 Q165 115, 195 118 Q215 115, 222 128 Q228 140, 218 144 Q208 138, 190 134 Q160 138, 145 134 Q136 136, 136 130 Z" fill="#C52F2F"/>
  
  <!-- 甬 component - positioned within the 辶 embrace -->
  <!-- Top lid (wider) -->
  <path d="M142 42 Q152 38, 175 40 Q198 38, 210 42 Q208 46, 196 44 Q175 46, 156 44 Q145 46, 142 42 Z" fill="#C52F2F"/>
  
  <!-- Center vertical of 甬 -->
  <path d="M174 40 Q171 44, 172 52 L172 95 Q172 102, 176 100 Q180 98, 179 92 L179 50 Q180 44, 174 40 Z" fill="#C52F2F"/>
  
  <!-- 甬 box - left vertical -->
  <path d="M150 52 Q147 56, 148 64 L148 82 Q148 88, 152 86 L153 67 Q154 58, 150 52 Z" fill="#C52F2F"/>
  
  <!-- 甬 box - right vertical -->
  <path d="M198 52 Q201 56, 200 64 L200 82 Q200 88, 196 86 L195 67 Q194 58, 198 52 Z" fill="#C52F2F"/>
  
  <!-- 甬 horizontal bars -->
  <path d="M150 56 Q162 53, 175 54 Q188 53, 200 56 Q198 60, 190 58 Q175 60, 160 58 Q152 60, 150 56 Z" fill="#C52F2F"/>
  <path d="M150 70 Q162 67, 175 68 Q188 67, 200 70 Q198 74, 190 72 Q175 74, 160 72 Q152 74, 150 70 Z" fill="#C52F2F"/>
  <path d="M148 84 Q162 81, 175 82 Q188 81, 202 84 Q200 88, 190 86 Q175 88, 160 86 Q150 88, 148 84 Z" fill="#C52F2F"/>
  
  <!-- 甬 bottom legs (differentiates from 車) -->
  <path d="M158 86 Q155 90, 156 98 L156 108 Q156 114, 160 112 L161 100 Q162 92, 158 86 Z" fill="#C52F2F"/>
  <path d="M190 86 Q193 90, 192 98 L192 108 Q192 114, 188 112 L187 100 Q186 92, 190 86 Z" fill="#C52F2F"/>
</svg>
