<svg xmlns="http://www.w3.org/2000/svg" viewBox="0 0 200 200" fill="none">
  <!-- Circular seal with character: Lian (connect) - simplified version -->
  
  <!-- Outer circle border -->
  <circle cx="100" cy="100" r="90" fill="none" stroke="#C52F2F" stroke-width="5"/>
  
  <!-- Inner circle border -->
  <circle cx="100" cy="100" r="75" fill="none" stroke="#C52F2F" stroke-width="2.5"/>
  
  <!-- === Character: Lian - connect === -->
  <!-- Structure: Che (vehicle) on top + Chuo (walk) radical at bottom -->
  
  <!-- TOP PART: Che (vehicle) -->
  
  <!-- Top horizontal line -->
  <path d="M55 38 Q60 35, 85 36 Q110 35, 145 38 Q148 41, 145 43 Q142 45, 130 44 Q100 46, 70 44 Q60 45, 55 43 Q52 41, 55 38 Z" fill="#C52F2F"/>
  
  <!-- Second horizontal -->
  <path d="M65 55 Q70 52, 90 53 Q110 52, 135 55 Q138 58, 135 60 Q132 62, 120 61 Q100 63, 80 61 Q70 62, 65 60 Q62 58, 65 55 Z" fill="#C52F2F"/>
  
  <!-- Center vertical stroke -->
  <path d="M98 36 Q95 40, 96 50 L96 115 Q96 122, 100 120 Q104 118, 103 112 L103 48 Q104 40, 98 36 Z" fill="#C52F2F"/>
  
  <!-- Box - left vertical -->
  <path d="M62 55 Q60 58, 61 65 L61 92 Q61 98, 65 96 Q68 94, 67 88 L67 62 Q68 57, 62 55 Z" fill="#C52F2F"/>
  
  <!-- Box - right vertical -->
  <path d="M132 55 Q134 58, 133 65 L133 92 Q133 98, 130 96 Q127 94, 128 88 L128 62 Q127 57, 132 55 Z" fill="#C52F2F"/>
  
  <!-- Box - bottom horizontal -->
  <path d="M62 88 Q68 85, 90 86 Q112 85, 135 88 Q138 91, 135 94 Q132 97, 118 95 Q98 97, 78 95 Q68 97, 62 94 Q59 91, 62 88 Z" fill="#C52F2F"/>
  
  <!-- Inner horizontal of box -->
  <path d="M68 72 Q74 69, 90 70 Q106 69, 128 72 Q131 75, 128 77 Q125 79, 112 78 Q95 80, 78 78 Q72 79, 68 77 Q65 75, 68 72 Z" fill="#C52F2F"/>
  
  
  <!-- BOTTOM: Chuo (walk) radical -->
  
  <!-- Dot -->
  <path d="M55 108 Q52 105, 54 110 Q52 118, 58 124 Q64 120, 60 114 Q62 108, 55 108 Z" fill="#C52F2F"/>
  
  <!-- Horizontal sweep -->
  <path d="M58 135 Q55 132, 60 130 Q80 126, 110 128 Q140 126, 158 135 Q165 142, 158 145 Q150 140, 125 138 Q95 140, 70 138 Q60 140, 58 135 Z" fill="#C52F2F"/>
  
  <!-- Curved stroke connecting -->
  <path d="M68 120 Q65 122, 64 128 Q62 134, 68 136 Q74 134, 72 128 Q74 124, 68 120 Z" fill="#C52F2F"/>
</svg>
