<?xml version="1.0" encoding="UTF-8" standalone="no"?>
<svg
   version="1.1"
   width="736"
   height="694"
   viewBox="0 0 736 694"
   xmlns="http://www.w3.org/2000/svg">
  <defs>
    <!-- Upper Wing Gradient: Extended light top, smooth transition, dark bottom -->
    <!-- Light colors extend further, gradual smooth transition to dark -->
    <linearGradient id="upperWingGradient" gradientUnits="userSpaceOnUse" 
                    x1="63" y1="103" x2="320" y2="540">
      <stop offset="0%" stop-color="#e8f8ff"/>
      <stop offset="5%" stop-color="#e0f5ff"/>
      <stop offset="10%" stop-color="#d0efff"/>
      <stop offset="15%" stop-color="#c5edff"/>
      <stop offset="20%" stop-color="#b8e6ff"/>
      <stop offset="25%" stop-color="#b1e4ff"/>
      <stop offset="30%" stop-color="#a9dbff"/>
      <stop offset="35%" stop-color="#a2d1ff"/>
      <stop offset="40%" stop-color="#99c3ff"/>
      <stop offset="46%" stop-color="#90b3ff"/>
      <stop offset="52%" stop-color="#89a7ff"/>
      <stop offset="58%" stop-color="#8197ff"/>
      <stop offset="64%" stop-color="#7881ff"/>
      <stop offset="70%" stop-color="#7374ff"/>
      <stop offset="76%" stop-color="#6c5bfe"/>
      <stop offset="85%" stop-color="#664af7"/>
      <stop offset="100%" stop-color="#664af7"/>
    </linearGradient>
    
    <!-- Inner Curve Gradient: Lighter tip, darker bottom -->
    <!-- Outer tip starts lighter blue, quickly transitions to deep #664af7 -->
    <linearGradient id="innerCurveGradient" gradientUnits="userSpaceOnUse"
                    x1="126" y1="336" x2="310" y2="486">
      <stop offset="0%" stop-color="#90b3ff"/>
      <stop offset="5%" stop-color="#89a7ff"/>
      <stop offset="10%" stop-color="#8197ff"/>
      <stop offset="15%" stop-color="#7c8bff"/>
      <stop offset="22%" stop-color="#7374ff"/>
      <stop offset="30%" stop-color="#6f68ff"/>
      <stop offset="40%" stop-color="#6c5bfe"/>
      <stop offset="50%" stop-color="#664af7"/>
      <stop offset="60%" stop-color="#664af7"/>
      <stop offset="75%" stop-color="#664af7"/>
      <stop offset="100%" stop-color="#664af7"/>
    </linearGradient>
    
    <!-- Lower Wing Gradient: Deep indigo at junction (323,550) to lavender-purple at far tip (693,280) -->
    <!-- Matches: (320,587)=#664af7, (321,504)=#664af7, (433,514)=#6c5bfe, (453,508)=#8460ff, 
         (527,473)=#664af7, (534,468)=#8460ff, (566,444)=#9e78ff, (585,426)=#8460ff, 
         (609,399)=#9e78ff, (627,370)=#8460ff, (637,352)=#9e78ff, (652,322)=#8460ff -->
    <linearGradient id="lowerWingGradient" gradientUnits="userSpaceOnUse"
                    x1="323" y1="607" x2="693" y2="247">
      <stop offset="0%" stop-color="#664af7"/>
      <stop offset="8%" stop-color="#6c5bfe"/>
      <stop offset="18%" stop-color="#664af7"/>
      <stop offset="28%" stop-color="#6c5bfe"/>
      <stop offset="38%" stop-color="#8460ff"/>
      <stop offset="50%" stop-color="#8f6aff"/>
      <stop offset="62%" stop-color="#8460ff"/>
      <stop offset="72%" stop-color="#9e78ff"/>
      <stop offset="82%" stop-color="#8f6aff"/>
      <stop offset="92%" stop-color="#9e78ff"/>
      <stop offset="100%" stop-color="#ab84ff"/>
    </linearGradient>
  </defs>
  
  <g id="lync-logo">
    <!-- Inner Curve (small middle piece) -->
    <path
       fill="url(#innerCurveGradient)"
       d="m 307.92993,486.33172 c -4.07877,-25.50723 -22.83142,-38.80538 -68.98575,-48.92016 -47.862,-10.48901 -67.68131,-21.33781 -87.64138,-47.97356 -9.29771,-12.40735 -23.29998,-41.4103 -25.63926,-53.1067 -0.64382,-3.21913 -0.64382,-3.21913 5.25391,1.34152 20.33711,15.72645 51.9491,28.7234 95.39774,39.22183 32.14334,7.76674 44.29963,11.41198 54.57958,16.36648 32.52012,15.67333 41.99794,38.07427 32.67042,77.21696 -1.7875,7.5012 -3.25,14.78714 -3.25,16.19098 0,4.1849 -1.70058,3.94438 -2.38526,-0.33735 z"
       id="innerCurve" />
    
    <!-- Upper Wing (large top-left piece) -->
    <path
       fill="url(#upperWingGradient)"
       d="m 324.08227,533.09052 c 0.61938,-23.7723 3.50881,-42.2657 12.69474,-81.25098 7.43534,-31.55568 2.04861,-56.22502 -16.09573,-73.71294 C 308.09129,365.9921 298.87335,361.58494 256.11315,347.25619 197.7012,327.6826 174.54157,314.84495 147.77852,287.20505 116.93729,255.35336 97.845056,218.82138 73.678936,145.41939 c -8.23624,-25.01668 -10.46957,-33.59413 -7.24822,-27.83789 2.16922,3.87617 35.044634,25.5338 60.402934,39.79218 26.73346,15.0316 85.3721,43.92612 149.48154,73.65789 63.18922,29.30499 87.19122,45.06792 103.22944,67.79426 24.18935,34.2766 19.88756,73.38895 -16.4357,149.43509 -15.72851,32.9291 -31.84707,71.94069 -35.87531,86.82862 -1.22771,4.5375 -2.4991,8.25044 -2.82531,8.25098 -0.32622,5.4e-4 -0.47293,-4.61196 -0.32604,-10.25 z"
       id="upperWing" />
    
    <!-- Lower Wing (large bottom-right piece) -->
    <path
       fill="url(#lowerWingGradient)"
       d="m 323.31519,607.92439 c 0,-6.94275 11.56317,-49.10587 20.18054,-73.58485 22.98901,-65.30394 56.33799,-106.05787 122.31946,-149.47978 19.27363,-12.68384 35.1453,-21.90853 92.5,-53.76148 82.44319,-45.78629 109.24789,-62.86354 131.23164,-83.60758 2.05241,-1.93666 3.92725,-3.32544 4.16632,-3.08618 0.68733,0.68788 -11.9134,40.62671 -19.0673,60.43502 -12.40817,34.35681 -24.46147,60.58575 -38.66848,84.14575 -39.30346,65.17832 -80.8232,98.40512 -170.41703,136.37879 -42.67637,18.08805 -49.94096,21.31555 -65.24515,28.98692 -34.47517,17.28101 -57.818,33.83523 -73.25,51.94728 -3.70851,4.35257 -3.75,4.37056 -3.75,1.62611 z"
       id="lowerWing" />
  </g>
</svg>
