<svg xmlns="http://www.w3.org/2000/svg" viewBox="0 0 200 200" fill="none">
  <!-- Main seal background - organic square -->
  <path 
    d="M18 14 
       C30 11, 60 13, 100 12 
       C140 11, 170 13, 182 14 
       C188 16, 189 22, 188 35
       C187 70, 188 130, 187 165 
       C186 178, 188 184, 182 186
       C170 189, 140 187, 100 188 
       C60 189, 30 187, 18 186
       C12 184, 11 178, 12 165 
       C13 130, 12 70, 13 35 
       C14 22, 12 16, 18 14 Z"
    fill="#C72C2C"
  />
  
  <!-- Inner border - with slight irregularity -->
  <path 
    d="M28 25 
       C38 23, 65 24, 100 24 
       C135 24, 162 23, 172 25 
       C176 27, 177 32, 176 42
       C175 75, 176 125, 175 158 
       C174 168, 176 173, 172 175
       C162 177, 135 176, 100 176 
       C65 176, 38 177, 28 175
       C24 173, 23 168, 24 158 
       C25 125, 24 75, 25 42 
       C26 32, 24 27, 28 25 Z"
    fill="none"
    stroke="#F5EBE0"
    stroke-width="2"
    opacity="0.9"
  />
  
  <!-- === 霖 Character - Elegant Curved Seal Script === -->
  <!-- More white space, curved flowing strokes -->
  
  <!-- ===== TOP: 雨 (rain) - curved elegant style ===== -->
  
  <!-- Top curved horizontal -->
  <path 
    d="M58 52 Q100 48, 142 52" 
    stroke="#F5EBE0" 
    stroke-width="5" 
    stroke-linecap="round" 
    fill="none" 
    opacity="0.95"
  />
  
  <!-- Left curved pillar -->
  <path 
    d="M62 52 Q60 65, 62 82" 
    stroke="#F5EBE0" 
    stroke-width="4.5" 
    stroke-linecap="round" 
    fill="none" 
    opacity="0.95"
  />
  
  <!-- Right curved pillar -->
  <path 
    d="M138 52 Q140 65, 138 82" 
    stroke="#F5EBE0" 
    stroke-width="4.5" 
    stroke-linecap="round" 
    fill="none" 
    opacity="0.95"
  />
  
  <!-- Inner curved horizontal -->
  <path 
    d="M68 64 Q100 61, 132 64" 
    stroke="#F5EBE0" 
    stroke-width="3.5" 
    stroke-linecap="round" 
    fill="none" 
    opacity="0.9"
  />
  
  <!-- Rain drops - curved elegant strokes -->
  <path 
    d="M78 70 Q76 78, 78 88" 
    stroke="#F5EBE0" 
    stroke-width="3.5" 
    stroke-linecap="round" 
    fill="none" 
    opacity="0.9"
  />
  <path 
    d="M100 70 Q98 76, 100 84" 
    stroke="#F5EBE0" 
    stroke-width="3.5" 
    stroke-linecap="round" 
    fill="none" 
    opacity="0.9"
  />
  <path 
    d="M122 70 Q124 78, 122 88" 
    stroke="#F5EBE0" 
    stroke-width="3.5" 
    stroke-linecap="round" 
    fill="none" 
    opacity="0.9"
  />
  
  <!-- ===== BOTTOM: 林 (forest) - elegant curved style ===== -->
  
  <!-- LEFT 木 - with flowing curves -->
  <!-- Curved horizontal -->
  <path 
    d="M52 108 Q70 105, 88 108" 
    stroke="#F5EBE0" 
    stroke-width="4" 
    stroke-linecap="round" 
    fill="none" 
    opacity="0.95"
  />
  <!-- Curved vertical trunk -->
  <path 
    d="M70 100 Q68 125, 70 155" 
    stroke="#F5EBE0" 
    stroke-width="4" 
    stroke-linecap="round" 
    fill="none" 
    opacity="0.95"
  />
  <!-- Left sweeping branch -->
  <path 
    d="M70 130 Q58 142, 48 155" 
    stroke="#F5EBE0" 
    stroke-width="3.5" 
    stroke-linecap="round" 
    fill="none" 
    opacity="0.9"
  />
  <!-- Right sweeping branch -->
  <path 
    d="M70 130 Q82 142, 92 155" 
    stroke="#F5EBE0" 
    stroke-width="3.5" 
    stroke-linecap="round" 
    fill="none" 
    opacity="0.9"
  />
  
  <!-- RIGHT 木 - with flowing curves -->
  <!-- Curved horizontal -->
  <path 
    d="M112 108 Q130 105, 148 108" 
    stroke="#F5EBE0" 
    stroke-width="4" 
    stroke-linecap="round" 
    fill="none" 
    opacity="0.95"
  />
  <!-- Curved vertical trunk -->
  <path 
    d="M130 100 Q128 125, 130 155" 
    stroke="#F5EBE0" 
    stroke-width="4" 
    stroke-linecap="round" 
    fill="none" 
    opacity="0.95"
  />
  <!-- Left sweeping branch -->
  <path 
    d="M130 130 Q118 142, 108 155" 
    stroke="#F5EBE0" 
    stroke-width="3.5" 
    stroke-linecap="round" 
    fill="none" 
    opacity="0.9"
  />
  <!-- Right sweeping branch -->
  <path 
    d="M130 130 Q142 142, 152 155" 
    stroke="#F5EBE0" 
    stroke-width="3.5" 
    stroke-linecap="round" 
    fill="none" 
    opacity="0.9"
  />
  
  <!-- Subtle worn edges - very minimal -->
  <ellipse cx="100" cy="11" rx="5" ry="2" fill="#faf8f5"/>
  <ellipse cx="12" cy="100" rx="2" ry="4" fill="#faf8f5"/>
  <ellipse cx="188" cy="100" rx="2" ry="4" fill="#faf8f5"/>
  <ellipse cx="100" cy="189" rx="4" ry="2" fill="#faf8f5"/>
  
  <!-- Corner imperfections -->
  <circle cx="16" cy="16" r="1.5" fill="#faf8f5" opacity="0.6"/>
  <circle cx="184" cy="184" r="1.5" fill="#faf8f5" opacity="0.6"/>
</svg>
