<svg xmlns="http://www.w3.org/2000/svg" viewBox="0 0 400 200" fill="none">
  <!-- Seal: Yu Jian Dong Fang (Meet the East) - Ancient Seal Script -->
  
  <!-- Outer border - organic irregular rectangle -->
  <path 
    d="M10 12 
       C20 6, 80 8, 200 6 
       C320 8, 380 6, 390 12 
       C398 20, 400 35, 398 55
       C400 100, 398 145, 400 165 
       C398 180, 395 192, 390 194
       C380 200, 320 198, 200 200 
       C80 198, 20 200, 10 194
       C3 188, 1 178, 3 160 
       C1 115, 3 70, 1 45 
       C3 28, 6 16, 10 12 Z"
    fill="none"
    stroke="#C52F2F"
    stroke-width="4"
    id="seal-border-outer"
  />
  
  <!-- Inner border -->
  <path 
    d="M22 24 
       C32 19, 85 20, 200 19 
       C315 20, 368 19, 378 24 
       C385 30, 387 42, 385 58
       C387 100, 385 142, 387 160 
       C385 172, 382 182, 378 184
       C368 189, 315 187, 200 189 
       C85 187, 32 189, 22 184
       C15 179, 13 170, 15 154 
       C13 112, 15 72, 13 52 
       C15 38, 18 28, 22 24 Z"
    fill="none"
    stroke="#C52F2F"
    stroke-width="2"
    id="seal-border-inner"
  />
  
  
  <!-- CHARACTER 1: Yu (encounter) - Seal Script -->
  <!-- Position: Left quarter of seal (x: 35-110) -->
  <!-- Structure: Chuo radical embracing Yu phonetic -->
  
  <!-- Yu phonetic component (top part) -->
  
  <!-- Stroke 1: Top horizontal -->
  <path 
    d="M45 42 Q42 40, 46 38 Q58 35, 72 36 Q86 35, 92 38 Q96 40, 92 42 Q88 44, 82 43 Q68 45, 54 43 Q48 44, 45 42 Z"
    fill="#C52F2F"
    id="yu-stroke-1"
    data-stroke="1"
    data-char="yu"
  />
  
  <!-- Stroke 2: Left vertical of box -->
  <path 
    d="M50 40 Q47 44, 48 52 L48 78 Q48 84, 52 82 Q55 80, 54 74 L54 50 Q55 44, 50 40 Z"
    fill="#C52F2F"
    id="yu-stroke-2"
    data-stroke="2"
    data-char="yu"
  />
  
  <!-- Stroke 3: Right vertical of box -->
  <path 
    d="M88 40 Q91 44, 90 52 L90 78 Q90 84, 86 82 Q83 80, 84 74 L84 50 Q83 44, 88 40 Z"
    fill="#C52F2F"
    id="yu-stroke-3"
    data-stroke="3"
    data-char="yu"
  />
  
  <!-- Stroke 4: Middle horizontal -->
  <path 
    d="M50 58 Q54 55, 68 56 Q82 55, 88 58 Q86 62, 80 60 Q68 62, 56 60 Q52 62, 50 58 Z"
    fill="#C52F2F"
    id="yu-stroke-4"
    data-stroke="4"
    data-char="yu"
  />
  
  <!-- Stroke 5: Bottom horizontal of box -->
  <path 
    d="M48 78 Q54 75, 68 76 Q82 75, 92 78 Q90 82, 82 80 Q68 82, 56 80 Q50 82, 48 78 Z"
    fill="#C52F2F"
    id="yu-stroke-5"
    data-stroke="5"
    data-char="yu"
  />
  
  <!-- Stroke 6: Center vertical through box -->
  <path 
    d="M67 38 Q64 42, 65 50 L65 95 Q65 102, 69 100 Q73 98, 72 92 L72 48 Q73 42, 67 38 Z"
    fill="#C52F2F"
    id="yu-stroke-6"
    data-stroke="6"
    data-char="yu"
  />
  
  <!-- Stroke 7: Left leg -->
  <path 
    d="M55 80 Q52 84, 50 92 Q48 100, 52 106 Q56 110, 60 106 Q58 100, 58 92 Q60 86, 55 80 Z"
    fill="#C52F2F"
    id="yu-stroke-7"
    data-stroke="7"
    data-char="yu"
  />
  
  <!-- Stroke 8: Right leg -->
  <path 
    d="M82 80 Q85 84, 88 92 Q90 100, 86 106 Q82 110, 78 106 Q80 100, 80 92 Q78 86, 82 80 Z"
    fill="#C52F2F"
    id="yu-stroke-8"
    data-stroke="8"
    data-char="yu"
  />
  
  <!-- Chuo Radical (walk - embracing the phonetic) -->
  
  <!-- Stroke 9: Chuo dot -->
  <path 
    d="M38 52 Q34 49, 36 55 Q34 63, 40 67 Q46 63, 42 57 Q44 51, 38 52 Z"
    fill="#C52F2F"
    id="yu-stroke-9"
    data-stroke="9"
    data-char="yu"
  />
  
  <!-- Stroke 10: Chuo vertical curve -->
  <path 
    d="M40 68 Q36 75, 38 88 Q36 108, 40 125 Q38 138, 44 142 Q50 138, 46 128 Q42 110, 44 90 Q46 78, 40 68 Z"
    fill="#C52F2F"
    id="yu-stroke-10"
    data-stroke="10"
    data-char="yu"
  />
  
  <!-- Stroke 11: Chuo horizontal sweep -->
  <path 
    d="M44 140 Q38 136, 48 132 Q65 125, 85 128 Q100 125, 108 138 Q114 150, 105 154 Q96 148, 82 144 Q60 148, 52 144 Q44 146, 44 140 Z"
    fill="#C52F2F"
    id="yu-stroke-11"
    data-stroke="11"
    data-char="yu"
  />
  
  
  <!-- CHARACTER 2: Jian (see/meet) - Ancient Seal Script -->
  <!-- Position: Second quarter (x: 120-195) -->
  <!-- Structure: Mu (eye) on top + Ren (legs) below -->
  
  <!-- Mu (eye) component - top part -->
  
  <!-- Stroke 1: Top horizontal of eye -->
  <path 
    d="M135 38 Q132 36, 136 34 Q150 31, 165 32 Q180 31, 186 34 Q190 36, 186 38 Q182 40, 175 39 Q160 41, 145 39 Q138 40, 135 38 Z"
    fill="#C52F2F"
    id="jian-stroke-1"
    data-stroke="1"
    data-char="jian"
  />
  
  <!-- Stroke 2: Left vertical of eye box -->
  <path 
    d="M140 36 Q137 40, 138 48 L138 88 Q138 94, 142 92 Q145 90, 144 84 L144 46 Q145 40, 140 36 Z"
    fill="#C52F2F"
    id="jian-stroke-2"
    data-stroke="2"
    data-char="jian"
  />
  
  <!-- Stroke 3: Right vertical of eye box -->
  <path 
    d="M182 36 Q185 40, 184 48 L184 88 Q184 94, 180 92 Q177 90, 178 84 L178 46 Q177 40, 182 36 Z"
    fill="#C52F2F"
    id="jian-stroke-3"
    data-stroke="3"
    data-char="jian"
  />
  
  <!-- Stroke 4: First inner horizontal of eye -->
  <path 
    d="M140 52 Q146 49, 160 50 Q174 49, 182 52 Q180 56, 172 54 Q160 56, 148 54 Q142 56, 140 52 Z"
    fill="#C52F2F"
    id="jian-stroke-4"
    data-stroke="4"
    data-char="jian"
  />
  
  <!-- Stroke 5: Second inner horizontal of eye -->
  <path 
    d="M140 68 Q146 65, 160 66 Q174 65, 182 68 Q180 72, 172 70 Q160 72, 148 70 Q142 72, 140 68 Z"
    fill="#C52F2F"
    id="jian-stroke-5"
    data-stroke="5"
    data-char="jian"
  />
  
  <!-- Stroke 6: Bottom horizontal of eye box -->
  <path 
    d="M138 88 Q146 85, 160 86 Q174 85, 186 88 Q184 92, 174 90 Q160 92, 148 90 Q140 92, 138 88 Z"
    fill="#C52F2F"
    id="jian-stroke-6"
    data-stroke="6"
    data-char="jian"
  />
  
  <!-- Ren (person/legs) component - bottom part -->
  
  <!-- Stroke 7: Left curved leg -->
  <path 
    d="M150 90 Q146 95, 142 105 Q138 118, 135 132 Q132 145, 138 150 Q144 152, 148 145 Q146 135, 150 120 Q154 105, 150 90 Z"
    fill="#C52F2F"
    id="jian-stroke-7"
    data-stroke="7"
    data-char="jian"
  />
  
  <!-- Stroke 8: Right curved leg -->
  <path 
    d="M172 90 Q176 95, 180 105 Q184 118, 187 132 Q190 145, 184 150 Q178 152, 174 145 Q176 135, 172 120 Q168 105, 172 90 Z"
    fill="#C52F2F"
    id="jian-stroke-8"
    data-stroke="8"
    data-char="jian"
  />
  
  
  <!-- CHARACTER 3: Dong (east) - Ancient Seal Script -->
  <!-- Position: Third quarter (x: 210-285) -->
  <!-- Structure: Tree with sun/bundle shape -->
  
  <!-- Stroke 1: Top horizontal -->
  <path 
    d="M225 38 Q222 36, 226 34 Q242 31, 258 32 Q274 31, 280 34 Q284 36, 280 38 Q276 40, 268 39 Q252 41, 236 39 Q228 40, 225 38 Z"
    fill="#C52F2F"
    id="dong-stroke-1"
    data-stroke="1"
    data-char="dong"
  />
  
  <!-- Stroke 2: Center vertical (tree trunk) -->
  <path 
    d="M250 36 Q247 40, 248 50 L248 145 Q248 152, 252 150 Q256 148, 255 142 L255 48 Q256 42, 250 36 Z"
    fill="#C52F2F"
    id="dong-stroke-2"
    data-stroke="2"
    data-char="dong"
  />
  
  <!-- Stroke 3: Upper left diagonal (sun rays) -->
  <path 
    d="M248 55 Q244 52, 235 58 Q226 65, 220 75 Q216 82, 222 85 Q228 82, 235 72 Q244 62, 248 55 Z"
    fill="#C52F2F"
    id="dong-stroke-3"
    data-stroke="3"
    data-char="dong"
  />
  
  <!-- Stroke 4: Upper right diagonal -->
  <path 
    d="M255 55 Q259 52, 268 58 Q277 65, 283 75 Q287 82, 281 85 Q275 82, 268 72 Q259 62, 255 55 Z"
    fill="#C52F2F"
    id="dong-stroke-4"
    data-stroke="4"
    data-char="dong"
  />
  
  <!-- Stroke 5: Middle horizontal bar -->
  <path 
    d="M222 88 Q228 85, 250 86 Q272 85, 282 88 Q280 92, 270 90 Q252 92, 232 90 Q224 92, 222 88 Z"
    fill="#C52F2F"
    id="dong-stroke-5"
    data-stroke="5"
    data-char="dong"
  />
  
  <!-- Stroke 6: Lower left diagonal -->
  <path 
    d="M248 95 Q244 92, 235 98 Q224 108, 218 122 Q214 132, 220 136 Q226 132, 234 118 Q244 102, 248 95 Z"
    fill="#C52F2F"
    id="dong-stroke-6"
    data-stroke="6"
    data-char="dong"
  />
  
  <!-- Stroke 7: Lower right diagonal -->
  <path 
    d="M255 95 Q259 92, 268 98 Q279 108, 285 122 Q289 132, 283 136 Q277 132, 269 118 Q259 102, 255 95 Z"
    fill="#C52F2F"
    id="dong-stroke-7"
    data-stroke="7"
    data-char="dong"
  />
  
  
  <!-- CHARACTER 4: Fang (direction/place) - Ancient Seal Script -->
  <!-- Position: Fourth quarter (x: 300-380) -->
  <!-- Structure: Horizontal top + vertical + diagonal strokes -->
  
  <!-- Stroke 1: Top horizontal with curved ends -->
  <path 
    d="M310 42 Q306 40, 312 38 Q332 34, 355 35 Q378 34, 385 38 Q390 40, 385 42 Q380 44, 370 43 Q350 45, 325 43 Q314 44, 310 42 Z"
    fill="#C52F2F"
    id="fang-stroke-1"
    data-stroke="1"
    data-char="fang"
  />
  
  <!-- Stroke 2: Center vertical -->
  <path 
    d="M345 40 Q342 44, 343 54 L343 105 Q343 112, 347 110 Q351 108, 350 102 L350 52 Q351 46, 345 40 Z"
    fill="#C52F2F"
    id="fang-stroke-2"
    data-stroke="2"
    data-char="fang"
  />
  
  <!-- Stroke 3: Left diagonal stroke -->
  <path 
    d="M343 58 Q338 55, 328 65 Q318 78, 308 95 Q302 108, 308 112 Q314 110, 322 95 Q335 75, 343 58 Z"
    fill="#C52F2F"
    id="fang-stroke-3"
    data-stroke="3"
    data-char="fang"
  />
  
  <!-- Stroke 4: Right diagonal stroke -->
  <path 
    d="M350 58 Q355 55, 365 65 Q375 78, 385 95 Q391 108, 385 112 Q379 110, 371 95 Q358 75, 350 58 Z"
    fill="#C52F2F"
    id="fang-stroke-4"
    data-stroke="4"
    data-char="fang"
  />
  
  <!-- Stroke 5: Bottom enclosure left -->
  <path 
    d="M320 110 Q316 114, 318 122 L318 145 Q318 152, 322 150 Q325 148, 324 142 L324 120 Q325 115, 320 110 Z"
    fill="#C52F2F"
    id="fang-stroke-5"
    data-stroke="5"
    data-char="fang"
  />
  
  <!-- Stroke 6: Bottom enclosure right -->
  <path 
    d="M372 110 Q376 114, 374 122 L374 145 Q374 152, 370 150 Q367 148, 368 142 L368 120 Q367 115, 372 110 Z"
    fill="#C52F2F"
    id="fang-stroke-6"
    data-stroke="6"
    data-char="fang"
  />
  
  <!-- Stroke 7: Bottom horizontal -->
  <path 
    d="M318 145 Q328 142, 345 143 Q362 142, 375 145 Q373 149, 362 147 Q348 149, 332 147 Q322 149, 318 145 Z"
    fill="#C52F2F"
    id="fang-stroke-7"
    data-stroke="7"
    data-char="fang"
  />
  
</svg>
