<svg xmlns="http://www.w3.org/2000/svg" viewBox="0 0 200 200" fill="none">
  <!-- 白文 style: Transparent background, red calligraphic strokes -->
  
  <!-- Outer border frame - organic carved feel -->
  <path 
    d="M18 14 
       C30 10, 60 12, 100 11 
       C140 12, 170 10, 182 14 
       C188 18, 189 30, 188 50
       C187 90, 188 130, 187 160 
       C186 175, 188 182, 182 186
       C170 190, 140 188, 100 189 
       C60 188, 30 190, 18 186
       C12 182, 11 175, 12 160 
       C13 130, 12 90, 13 50 
       C14 30, 12 18, 18 14 Z"
    fill="none"
    stroke="#C52F2F"
    stroke-width="5"
  />
  
  <!-- Inner border frame -->
  <path 
    d="M34 32 
       C44 29, 65 30, 100 29 
       C135 30, 156 29, 166 32 
       C171 35, 172 42, 171 55
       C170 85, 171 115, 170 145 
       C169 158, 171 165, 166 168
       C156 171, 135 170, 100 171 
       C65 170, 44 171, 34 168
       C29 165, 28 158, 29 145 
       C30 115, 29 85, 30 55 
       C31 42, 29 35, 34 32 Z"
    fill="none"
    stroke="#C52F2F"
    stroke-width="3"
  />
  
  <!-- === 霖 Character - Refined 书法 with 笔锋 === -->
  
  <!-- ===== TOP: 雨 (rain) with elegant brush strokes ===== -->
  
  <!-- Top horizontal - curved with thick-thin variation -->
  <path 
    d="M50 52 
       Q48 50, 52 48
       Q75 44, 100 43
       Q125 44, 148 48
       Q152 50, 150 52
       Q148 54, 145 53
       Q120 50, 100 49
       Q80 50, 55 53
       Q52 54, 50 52 Z" 
    fill="#C52F2F"
  />
  
  <!-- Left pillar - calligraphic taper with 笔锋 -->
  <path 
    d="M54 48 
       Q50 50, 51 54
       Q48 68, 52 82
       Q54 88, 58 86
       Q60 90, 56 94
       Q52 92, 54 84
       Q50 70, 54 54
       Q56 50, 54 48 Z" 
    fill="#C52F2F"
  />
  
  <!-- Right pillar - calligraphic taper with 笔锋 -->
  <path 
    d="M146 48 
       Q150 50, 149 54
       Q152 68, 148 82
       Q146 88, 142 86
       Q140 90, 144 94
       Q148 92, 146 84
       Q150 70, 146 54
       Q144 50, 146 48 Z" 
    fill="#C52F2F"
  />
  
  <!-- Inner horizontal with brush variation -->
  <path 
    d="M62 66 
       Q58 64, 62 62
       Q80 59, 100 58
       Q120 59, 138 62
       Q142 64, 138 66
       Q136 68, 132 67
       Q110 64, 100 64
       Q90 64, 68 67
       Q64 68, 62 66 Z" 
    fill="#C52F2F"
  />
  
  <!-- Rain strokes with beautiful 笔锋 endings -->
  <path d="M74 72 Q70 70, 71 74 Q68 82, 72 92 Q76 96, 78 92 Q82 98, 76 100 Q70 96, 74 86 Q70 78, 74 72 Z" fill="#C52F2F"/>
  <path d="M98 72 Q94 70, 95 74 Q92 80, 96 88 Q100 92, 102 88 Q106 94, 100 96 Q94 92, 98 82 Q94 76, 98 72 Z" fill="#C52F2F"/>
  <path d="M122 72 Q118 70, 119 74 Q116 82, 120 92 Q124 96, 126 92 Q130 98, 124 100 Q118 96, 122 86 Q118 78, 122 72 Z" fill="#C52F2F"/>
  
  <!-- ===== BOTTOM: 林 (forest) - flowing calligraphy ===== -->
  
  <!-- LEFT 木 -->
  <!-- Horizontal with elegant curve and 笔锋 -->
  <path 
    d="M44 110 
       Q40 108, 44 106
       Q58 102, 70 101
       Q82 102, 96 106
       Q100 108, 96 110
       Q94 112, 90 111
       Q78 108, 70 107
       Q62 108, 50 111
       Q46 112, 44 110 Z" 
    fill="#C52F2F"
  />
  
  <!-- Vertical trunk with graceful taper -->
  <path 
    d="M68 98 
       Q64 100, 65 104
       Q62 125, 66 150
       Q68 158, 72 154
       Q76 160, 70 164
       Q64 158, 68 148
       Q64 128, 68 106
       Q70 101, 68 98 Z" 
    fill="#C52F2F"
  />
  
  <!-- Left sweeping 撇 with dramatic 笔锋 -->
  <path 
    d="M66 130 
       Q62 128, 58 132
       Q48 144, 38 158
       Q34 166, 40 164
       Q46 170, 38 172
       Q32 168, 40 156
       Q52 142, 62 132
       Q68 128, 66 130 Z" 
    fill="#C52F2F"
  />
  
  <!-- Right sweeping 捺 with elegant 笔锋 -->
  <path 
    d="M74 130 
       Q78 128, 82 132
       Q92 144, 102 158
       Q106 166, 100 164
       Q94 170, 102 172
       Q108 168, 100 156
       Q88 142, 78 132
       Q72 128, 74 130 Z" 
    fill="#C52F2F"
  />
  
  <!-- RIGHT 木 -->
  <!-- Horizontal with elegant curve and 笔锋 -->
  <path 
    d="M104 110 
       Q100 108, 104 106
       Q118 102, 130 101
       Q142 102, 156 106
       Q160 108, 156 110
       Q154 112, 150 111
       Q138 108, 130 107
       Q122 108, 110 111
       Q106 112, 104 110 Z" 
    fill="#C52F2F"
  />
  
  <!-- Vertical trunk with graceful taper -->
  <path 
    d="M128 98 
       Q124 100, 125 104
       Q122 125, 126 150
       Q128 158, 132 154
       Q136 160, 130 164
       Q124 158, 128 148
       Q124 128, 128 106
       Q130 101, 128 98 Z" 
    fill="#C52F2F"
  />
  
  <!-- Left sweeping 撇 with dramatic 笔锋 -->
  <path 
    d="M126 130 
       Q122 128, 118 132
       Q108 144, 98 158
       Q94 166, 100 164
       Q106 170, 98 172
       Q92 168, 100 156
       Q112 142, 122 132
       Q128 128, 126 130 Z" 
    fill="#C52F2F"
  />
  
  <!-- Right sweeping 捺 with elegant 笔锋 -->
  <path 
    d="M134 130 
       Q138 128, 142 132
       Q152 144, 162 158
       Q166 166, 160 164
       Q154 170, 162 172
       Q168 168, 160 156
       Q148 142, 138 132
       Q132 128, 134 130 Z" 
    fill="#C52F2F"
  />
</svg>
