<?xml version="1.0" encoding="UTF-8" standalone="no"?>
<svg
   version="1.1"
   width="736"
   height="694"
   viewBox="0 0 736 694"
   xmlns="http://www.w3.org/2000/svg">
  <defs>
    <!-- Upper Wing Gradient: 香山红叶 (Autumn Red Leaf) -->
    <!-- Light golden-yellow tip → orange → vermillion → 故宫红墙 at base -->
    <linearGradient id="upperWingGradientNew" gradientUnits="userSpaceOnUse" 
                    x1="63" y1="103" x2="320" y2="540">
      <stop offset="0%" stop-color="#FFF8DC"/>
      <stop offset="5%" stop-color="#FFEFB0"/>
      <stop offset="10%" stop-color="#FFE488"/>
      <stop offset="15%" stop-color="#FFD866"/>
      <stop offset="20%" stop-color="#FFC844"/>
      <stop offset="26%" stop-color="#FFB428"/>
      <stop offset="32%" stop-color="#FF9E18"/>
      <stop offset="38%" stop-color="#FF8810"/>
      <stop offset="44%" stop-color="#FF7010"/>
      <stop offset="50%" stop-color="#F05818"/>
      <stop offset="56%" stop-color="#E04420"/>
      <stop offset="62%" stop-color="#D03428"/>
      <stop offset="70%" stop-color="#B82828"/>
      <stop offset="78%" stop-color="#9E2424"/>
      <stop offset="86%" stop-color="#8B2323"/>
      <stop offset="100%" stop-color="#7A1F1F"/>
    </linearGradient>
    
    <!-- Inner Curve Gradient: Same autumn leaf pattern -->
    <!-- Light golden tip → 故宫红墙 at base -->
    <linearGradient id="innerCurveGradientNew" gradientUnits="userSpaceOnUse"
                    x1="126" y1="336" x2="310" y2="486">
      <stop offset="0%" stop-color="#FFD866"/>
      <stop offset="10%" stop-color="#FFC040"/>
      <stop offset="20%" stop-color="#FFA020"/>
      <stop offset="30%" stop-color="#F08018"/>
      <stop offset="42%" stop-color="#E05820"/>
      <stop offset="54%" stop-color="#D04028"/>
      <stop offset="66%" stop-color="#B83028"/>
      <stop offset="78%" stop-color="#9E2626"/>
      <stop offset="90%" stop-color="#8B2323"/>
      <stop offset="100%" stop-color="#7A1F1F"/>
    </linearGradient>
    
    <!-- Lower Wing Gradient: Extended red, rapid transition to yellow -->
    <!-- 故宫红墙 holds for ~40%, then rapid transition to golden tip -->
    <linearGradient id="lowerWingGradientNew" gradientUnits="userSpaceOnUse"
                    x1="323" y1="607" x2="693" y2="247">
      <stop offset="0%" stop-color="#7A1F1F"/>
      <stop offset="10%" stop-color="#8B2323"/>
      <stop offset="20%" stop-color="#8B2323"/>
      <stop offset="30%" stop-color="#8B2323"/>
      <stop offset="40%" stop-color="#9E2626"/>
      <stop offset="48%" stop-color="#B83028"/>
      <stop offset="55%" stop-color="#D04028"/>
      <stop offset="62%" stop-color="#E05820"/>
      <stop offset="70%" stop-color="#F07818"/>
      <stop offset="78%" stop-color="#FF9818"/>
      <stop offset="85%" stop-color="#FFB428"/>
      <stop offset="92%" stop-color="#FFCC44"/>
      <stop offset="100%" stop-color="#FFE066"/>
    </linearGradient>
  </defs>
  
  <g id="lync-logo-new">
    <!-- Inner Curve (small middle piece) - 红叶 autumn leaf -->
    <path
       fill="url(#innerCurveGradientNew)"
       d="m 307.92993,486.33172 c -4.07877,-25.50723 -22.83142,-38.80538 -68.98575,-48.92016 -47.862,-10.48901 -67.68131,-21.33781 -87.64138,-47.97356 -9.29771,-12.40735 -23.29998,-41.4103 -25.63926,-53.1067 -0.64382,-3.21913 -0.64382,-3.21913 5.25391,1.34152 20.33711,15.72645 51.9491,28.7234 95.39774,39.22183 32.14334,7.76674 44.29963,11.41198 54.57958,16.36648 32.52012,15.67333 41.99794,38.07427 32.67042,77.21696 -1.7875,7.5012 -3.25,14.78714 -3.25,16.19098 0,4.1849 -1.70058,3.94438 -2.38526,-0.33735 z"
       id="innerCurveNew" />
    
    <!-- Upper Wing (large top-left piece) - 香山红叶 maple leaf -->
    <path
       fill="url(#upperWingGradientNew)"
       d="m 324.08227,533.09052 c 0.61938,-23.7723 3.50881,-42.2657 12.69474,-81.25098 7.43534,-31.55568 2.04861,-56.22502 -16.09573,-73.71294 C 308.09129,365.9921 298.87335,361.58494 256.11315,347.25619 197.7012,327.6826 174.54157,314.84495 147.77852,287.20505 116.93729,255.35336 97.845056,218.82138 73.678936,145.41939 c -8.23624,-25.01668 -10.46957,-33.59413 -7.24822,-27.83789 2.16922,3.87617 35.044634,25.5338 60.402934,39.79218 26.73346,15.0316 85.3721,43.92612 149.48154,73.65789 63.18922,29.30499 87.19122,45.06792 103.22944,67.79426 24.18935,34.2766 19.88756,73.38895 -16.4357,149.43509 -15.72851,32.9291 -31.84707,71.94069 -35.87531,86.82862 -1.22771,4.5375 -2.4991,8.25044 -2.82531,8.25098 -0.32622,5.4e-4 -0.47293,-4.61196 -0.32604,-10.25 z"
       id="upperWingNew" />
    
    <!-- Lower Wing (large bottom-right piece) - 故宫红墙 imperial wall -->
    <path
       fill="url(#lowerWingGradientNew)"
       d="m 323.31519,607.92439 c 0,-6.94275 11.56317,-49.10587 20.18054,-73.58485 22.98901,-65.30394 56.33799,-106.05787 122.31946,-149.47978 19.27363,-12.68384 35.1453,-21.90853 92.5,-53.76148 82.44319,-45.78629 109.24789,-62.86354 131.23164,-83.60758 2.05241,-1.93666 3.92725,-3.32544 4.16632,-3.08618 0.68733,0.68788 -11.9134,40.62671 -19.0673,60.43502 -12.40817,34.35681 -24.46147,60.58575 -38.66848,84.14575 -39.30346,65.17832 -80.8232,98.40512 -170.41703,136.37879 -42.67637,18.08805 -49.94096,21.31555 -65.24515,28.98692 -34.47517,17.28101 -57.818,33.83523 -73.25,51.94728 -3.70851,4.35257 -3.75,4.37056 -3.75,1.62611 z"
       id="lowerWingNew" />
  </g>
</svg>
