<svg xmlns="http://www.w3.org/2000/svg" viewBox="0 0 200 200" fill="none">
  <!-- Main seal background - organic square shape with hand-carved feel -->
  <path 
    d="M20 16 
       C28 13, 50 15, 80 14 
       C110 13, 150 14, 170 15 
       C182 16, 186 20, 186 30
       C187 50, 186 90, 186 120 
       C186 150, 187 170, 184 180
       C182 186, 175 187, 165 187 
       C140 188, 100 187, 60 187 
       C35 187, 20 188, 16 183
       C13 175, 14 150, 14 120 
       C14 90, 13 50, 15 30 
       C16 20, 15 16, 20 16 Z"
    fill="#C13B33"
  />
  
  <!-- Inner carved area - slightly recessed look -->
  <path 
    d="M28 26 
       C35 24, 55 25, 85 24 
       C115 23, 150 24, 168 25 
       C174 26, 176 29, 176 36
       C177 55, 176 95, 176 125 
       C176 155, 177 168, 174 174
       C172 177, 166 178, 158 178 
       C135 179, 100 178, 65 178 
       C42 178, 28 179, 25 174
       C22 168, 23 155, 23 125 
       C23 95, 22 55, 24 36 
       C25 29, 24 26, 28 26 Z"
    fill="#B53029"
  />
  
  <!-- Inner border frame - clean line -->
  <rect x="36" y="36" width="128" height="128" rx="2" ry="2" fill="none" stroke="#F2E8DF" stroke-width="2.5" opacity="0.92"/>
  
  <!-- === 霖 Character - Seal Script Style === -->
  <!-- The character 霖 (lín) means continuous rain, phonetically similar to "Lync" -->
  
  <!-- ===== TOP: 雨 (rain) radical ===== -->
  <!-- Main top horizontal bar -->
  <rect x="52" y="48" width="96" height="9" rx="1" fill="#F2E8DF" opacity="0.95"/>
  
  <!-- Left pillar -->
  <rect x="54" y="48" width="7" height="36" rx="1" fill="#F2E8DF" opacity="0.95"/>
  
  <!-- Right pillar -->
  <rect x="139" y="48" width="7" height="36" rx="1" fill="#F2E8DF" opacity="0.95"/>
  
  <!-- Inner horizontal -->
  <rect x="61" y="60" width="78" height="5" rx="1" fill="#F2E8DF" opacity="0.9"/>
  
  <!-- Rain strokes (4 drops) -->
  <rect x="70" y="67" width="5" height="18" rx="1" fill="#F2E8DF" opacity="0.92"/>
  <rect x="88" y="67" width="5" height="14" rx="1" fill="#F2E8DF" opacity="0.92"/>
  <rect x="106" y="67" width="5" height="14" rx="1" fill="#F2E8DF" opacity="0.92"/>
  <rect x="124" y="67" width="5" height="18" rx="1" fill="#F2E8DF" opacity="0.92"/>
  
  <!-- ===== BOTTOM: 林 (forest) - two 木 ===== -->
  
  <!-- LEFT 木 -->
  <rect x="48" y="98" width="42" height="6" rx="1" fill="#F2E8DF" opacity="0.95"/>
  <rect x="65" y="92" width="7" height="60" rx="1" fill="#F2E8DF" opacity="0.95"/>
  <!-- Branches -->
  <path d="M50 128 L65 145 L65 152 L58 152 L48 138 Z" fill="#F2E8DF" opacity="0.9"/>
  <path d="M72 152 L72 145 L87 128 L90 138 L80 152 Z" fill="#F2E8DF" opacity="0.9"/>
  
  <!-- RIGHT 木 -->
  <rect x="110" y="98" width="42" height="6" rx="1" fill="#F2E8DF" opacity="0.95"/>
  <rect x="127" y="92" width="7" height="60" rx="1" fill="#F2E8DF" opacity="0.95"/>
  <!-- Branches -->
  <path d="M112 128 L127 145 L127 152 L120 152 L110 138 Z" fill="#F2E8DF" opacity="0.9"/>
  <path d="M134 152 L134 145 L149 128 L152 138 L142 152 Z" fill="#F2E8DF" opacity="0.9"/>
  
  <!-- Subtle worn edges - integrated into the seal edge -->
  <ellipse cx="100" cy="13" rx="8" ry="2" fill="#faf8f5"/>
  <ellipse cx="45" cy="188" rx="6" ry="2" fill="#faf8f5"/>
  <ellipse cx="155" cy="188" rx="5" ry="2" fill="#faf8f5"/>
  <ellipse cx="12" cy="100" rx="2" ry="6" fill="#faf8f5"/>
  <ellipse cx="188" cy="85" rx="2" ry="5" fill="#faf8f5"/>
  <ellipse cx="188" cy="140" rx="2" ry="4" fill="#faf8f5"/>
  <ellipse cx="12" cy="55" rx="2" ry="4" fill="#faf8f5"/>
  
  <!-- Tiny imperfections for authenticity -->
  <circle cx="180" cy="25" r="1.5" fill="#faf8f5" opacity="0.7"/>
  <circle cx="22" cy="175" r="1.5" fill="#faf8f5" opacity="0.7"/>
  <circle cx="178" cy="178" r="2" fill="#faf8f5" opacity="0.6"/>
  <circle cx="22" cy="22" r="1.5" fill="#faf8f5" opacity="0.5"/>
</svg>
