<svg xmlns="http://www.w3.org/2000/svg" viewBox="0 0 240 180" fill="none">
  <!-- Irregular rectangular seal: Lian Tong -->
  
  <!-- Outer border - organic irregular rectangle -->
  <path 
    d="M12 15 
       C22 10, 55 12, 120 10 
       C185 12, 218 10, 228 15 
       C235 22, 237 35, 235 55
       C237 90, 235 125, 237 145 
       C235 158, 232 168, 228 170
       C218 176, 185 174, 120 176 
       C55 174, 22 176, 12 170
       C5 165, 3 155, 5 138 
       C3 105, 5 65, 3 45 
       C5 30, 8 20, 12 15 Z"
    fill="none"
    stroke="#C52F2F"
    stroke-width="5"
  />
  
  <!-- Inner border -->
  <path 
    d="M25 28 
       C34 24, 60 25, 120 24 
       C180 25, 206 24, 215 28 
       C221 33, 223 44, 221 60
       C223 90, 221 120, 223 138 
       C221 148, 218 156, 215 158
       C206 163, 180 161, 120 163 
       C60 161, 34 163, 25 158
       C19 154, 17 145, 19 130 
       C17 100, 19 70, 17 52 
       C19 40, 22 32, 25 28 Z"
    fill="none"
    stroke="#C52F2F"
    stroke-width="2.5"
  />
  
  
  <!-- === LEFT: Lian - 辶 embracing 車 (車 moved lower) === -->
  
  <!-- 辶 dot - upper left -->
  <path d="M38 42 Q34 39, 36 45 Q34 53, 40 57 Q46 53, 42 47 Q44 41, 38 42 Z" fill="#C52F2F"/>
  
  <!-- 辶 vertical curve - goes down left side, starts higher -->
  <path d="M40 58 Q36 65, 38 78 Q36 98, 40 115 Q38 128, 44 132 Q50 128, 46 118 Q42 100, 44 80 Q46 68, 40 58 Z" fill="#C52F2F"/>
  
  <!-- 辶 horizontal sweep - goes under and right -->
  <path d="M44 130 Q38 126, 48 122 Q70 115, 95 118 Q112 115, 118 128 Q124 140, 115 144 Q106 138, 92 134 Q65 138, 52 134 Q44 136, 44 130 Z" fill="#C52F2F"/>
  
  <!-- 車 component - moved DOWN to sit within 辶 embrace -->
  <!-- Top horizontal - moved down by 18 -->
  <path d="M52 60 Q60 57, 78 58 Q96 57, 105 60 Q103 64, 94 62 Q76 64, 62 62 Q54 64, 52 60 Z" fill="#C52F2F"/>
  
  <!-- Center vertical of 車 - moved down -->
  <path d="M76 58 Q73 62, 74 70 L74 116 Q74 122, 78 120 Q82 118, 81 112 L81 68 Q82 62, 76 58 Z" fill="#C52F2F"/>
  
  <!-- Box left vertical - moved down -->
  <path d="M56 68 Q53 72, 54 80 L54 106 Q54 112, 58 110 L59 83 Q60 74, 56 68 Z" fill="#C52F2F"/>
  
  <!-- Box right vertical - moved down -->
  <path d="M100 68 Q103 72, 102 80 L102 106 Q102 112, 98 110 L97 83 Q96 74, 100 68 Z" fill="#C52F2F"/>
  
  <!-- Horizontal bars inside box - moved down -->
  <path d="M56 73 Q66 70, 78 71 Q90 70, 102 73 Q100 77, 92 75 Q78 77, 64 75 Q58 77, 56 73 Z" fill="#C52F2F"/>
  <path d="M56 90 Q66 87, 78 88 Q90 87, 102 90 Q100 94, 92 92 Q78 94, 64 92 Q58 94, 56 90 Z" fill="#C52F2F"/>
  <path d="M54 106 Q66 103, 78 104 Q90 103, 104 106 Q102 110, 92 108 Q78 110, 64 108 Q56 110, 54 106 Z" fill="#C52F2F"/>
  
  
  <!-- === RIGHT: Tong - 辶 embracing 甬 (甬 moved lower) === -->
  
  <!-- 辶 dot - upper left -->
  <path d="M130 42 Q126 39, 128 45 Q126 53, 132 57 Q138 53, 134 47 Q136 41, 130 42 Z" fill="#C52F2F"/>
  
  <!-- 辶 vertical curve - goes down left side, starts higher -->
  <path d="M132 58 Q128 65, 130 78 Q128 98, 132 115 Q130 128, 136 132 Q142 128, 138 118 Q134 100, 136 80 Q138 68, 132 58 Z" fill="#C52F2F"/>
  
  <!-- 辶 horizontal sweep - goes under and right -->
  <path d="M136 130 Q130 126, 140 122 Q165 115, 195 118 Q215 115, 222 128 Q228 140, 218 144 Q208 138, 190 134 Q160 138, 145 134 Q136 136, 136 130 Z" fill="#C52F2F"/>
  
  <!-- 甬 component - moved DOWN to sit within 辶 embrace -->
  <!-- Top lid (wider) - moved down -->
  <path d="M142 60 Q152 56, 175 58 Q198 56, 210 60 Q208 64, 196 62 Q175 64, 156 62 Q145 64, 142 60 Z" fill="#C52F2F"/>
  
  <!-- Center vertical of 甬 - moved down -->
  <path d="M174 58 Q171 62, 172 70 L172 113 Q172 120, 176 118 Q180 116, 179 110 L179 68 Q180 62, 174 58 Z" fill="#C52F2F"/>
  
  <!-- 甬 box - left vertical - moved down -->
  <path d="M150 70 Q147 74, 148 82 L148 100 Q148 106, 152 104 L153 85 Q154 76, 150 70 Z" fill="#C52F2F"/>
  
  <!-- 甬 box - right vertical - moved down -->
  <path d="M198 70 Q201 74, 200 82 L200 100 Q200 106, 196 104 L195 85 Q194 76, 198 70 Z" fill="#C52F2F"/>
  
  <!-- 甬 horizontal bars - moved down -->
  <path d="M150 74 Q162 71, 175 72 Q188 71, 200 74 Q198 78, 190 76 Q175 78, 160 76 Q152 78, 150 74 Z" fill="#C52F2F"/>
  <path d="M150 88 Q162 85, 175 86 Q188 85, 200 88 Q198 92, 190 90 Q175 92, 160 90 Q152 92, 150 88 Z" fill="#C52F2F"/>
  <path d="M148 102 Q162 99, 175 100 Q188 99, 202 102 Q200 106, 190 104 Q175 106, 160 104 Q150 106, 148 102 Z" fill="#C52F2F"/>
  
  <!-- 甬 bottom legs - moved down -->
  <path d="M158 104 Q155 108, 156 116 L156 126 Q156 132, 160 130 L161 118 Q162 110, 158 104 Z" fill="#C52F2F"/>
  <path d="M190 104 Q193 108, 192 116 L192 126 Q192 132, 188 130 L187 118 Q186 110, 190 104 Z" fill="#C52F2F"/>
</svg>
