<svg xmlns="http://www.w3.org/2000/svg" viewBox="0 0 400 200" fill="none">
  <!-- Seal: Yu Jian Dong Fang - Correct Stroke Order -->
  
  <!-- Outer border -->
  <path d="M10 12 C20 6, 80 8, 200 6 C320 8, 380 6, 390 12 C398 20, 400 35, 398 55 C400 100, 398 145, 400 165 C398 180, 395 192, 390 194 C380 200, 320 198, 200 200 C80 198, 20 200, 10 194 C3 188, 1 178, 3 160 C1 115, 3 70, 1 45 C3 28, 6 16, 10 12 Z" fill="none" stroke="#C52F2F" stroke-width="4"/>
  
  <!-- Inner border -->
  <path d="M22 24 C32 19, 85 20, 200 19 C315 20, 368 19, 378 24 C385 30, 387 42, 385 58 C387 100, 385 142, 387 160 C385 172, 382 182, 378 184 C368 189, 315 187, 200 189 C85 187, 32 189, 22 184 C15 179, 13 170, 15 154 C13 112, 15 72, 13 52 C15 38, 18 28, 22 24 Z" fill="none" stroke="#C52F2F" stroke-width="2"/>
  
  
  <!-- ========== CHARACTER 1: Yu (12 strokes) ========== -->
  <!-- Position: x=35-110 -->
  
  <!-- === Yu component (strokes 1-9) === -->
  
  <!-- Stroke 1: Pie (left-falling) at top-left of Yu -->
  <path 
    d="M62 35 Q58 38, 52 48 Q48 58, 50 62 Q54 60, 56 52 Q60 44, 62 35 Z"
    fill="#C52F2F" id="yu-s01" data-stroke="1" data-char="yu"
  />
  
  <!-- Stroke 2: Shu (vertical) left side -->
  <path 
    d="M55 42 Q52 46, 53 55 L53 82 Q53 88, 57 86 Q60 84, 59 78 L59 52 Q60 46, 55 42 Z"
    fill="#C52F2F" id="yu-s02" data-stroke="2" data-char="yu"
  />
  
  <!-- Stroke 3: Hengzhe (horizontal + turn down) top-right -->
  <path 
    d="M58 45 Q62 42, 75 43 Q88 42, 95 45 Q98 48, 96 52 L96 82 Q96 88, 92 86 Q89 84, 90 78 L90 50 Q88 47, 80 48 Q68 50, 60 48 Q58 49, 58 45 Z"
    fill="#C52F2F" id="yu-s03" data-stroke="3" data-char="yu"
  />
  
  <!-- Stroke 4: Heng (horizontal) first inner -->
  <path 
    d="M58 55 Q62 52, 75 53 Q88 52, 92 55 Q90 59, 84 57 Q72 59, 62 57 Q58 58, 58 55 Z"
    fill="#C52F2F" id="yu-s04" data-stroke="4" data-char="yu"
  />
  
  <!-- Stroke 5: Heng (horizontal) second inner -->
  <path 
    d="M58 68 Q62 65, 75 66 Q88 65, 92 68 Q90 72, 84 70 Q72 72, 62 70 Q58 71, 58 68 Z"
    fill="#C52F2F" id="yu-s05" data-stroke="5" data-char="yu"
  />
  
  <!-- Stroke 6: Shu (vertical) center through -->
  <path 
    d="M73 43 Q70 47, 71 55 L71 105 Q71 112, 75 110 Q79 108, 78 102 L78 52 Q79 47, 73 43 Z"
    fill="#C52F2F" id="yu-s06" data-stroke="6" data-char="yu"
  />
  
  <!-- Stroke 7: Heng (horizontal) bottom of top box -->
  <path 
    d="M55 82 Q62 79, 75 80 Q88 79, 96 82 Q94 86, 86 84 Q74 86, 62 84 Q56 85, 55 82 Z"
    fill="#C52F2F" id="yu-s07" data-stroke="7" data-char="yu"
  />
  
  <!-- Stroke 8: Shu (vertical) left leg -->
  <path 
    d="M62 84 Q59 88, 60 96 L60 110 Q60 118, 64 115 Q67 112, 66 106 L66 94 Q67 89, 62 84 Z"
    fill="#C52F2F" id="yu-s08" data-stroke="8" data-char="yu"
  />
  
  <!-- Stroke 9: Shu (vertical) right leg -->
  <path 
    d="M86 84 Q89 88, 88 96 L88 110 Q88 118, 84 115 Q81 112, 82 106 L82 94 Q81 89, 86 84 Z"
    fill="#C52F2F" id="yu-s09" data-stroke="9" data-char="yu"
  />
  
  
  <!-- === Chuo radical (strokes 10-12) === -->
  
  <!-- Stroke 10: Dian (dot) -->
  <path 
    d="M42 55 Q38 52, 40 58 Q38 66, 44 70 Q50 66, 46 60 Q48 54, 42 55 Z"
    fill="#C52F2F" id="yu-s10" data-stroke="10" data-char="yu"
  />
  
  <!-- Stroke 11: Hengzhezhepi (zigzag curve down) -->
  <path 
    d="M44 72 Q40 78, 42 90 Q38 108, 44 125 Q42 138, 50 145 Q56 140, 52 130 Q46 112, 50 95 Q54 82, 44 72 Z"
    fill="#C52F2F" id="yu-s11" data-stroke="11" data-char="yu"
  />
  
  <!-- Stroke 12: Na (sweeping right stroke) -->
  <path 
    d="M50 142 Q44 138, 55 132 Q72 125, 90 128 Q105 125, 112 140 Q118 152, 108 156 Q98 150, 85 146 Q65 150, 55 146 Q48 148, 50 142 Z"
    fill="#C52F2F" id="yu-s12" data-stroke="12" data-char="yu"
  />


  <!-- ========== CHARACTER 2: Jian - Seal Script (7 strokes) ========== -->
  <!-- Position: x=125-205 -->
  <!-- Structure: Mu (eye) on top + Er (legs) on bottom -->
  
  <!-- === Mu (eye) component - strokes 1-5 === -->
  
  <!-- Stroke 1: Left vertical of eye -->
  <path 
    d="M138 32 Q134 36, 135 45 L135 85 Q135 92, 139 90 Q143 88, 142 82 L142 42 Q143 36, 138 32 Z"
    fill="#C52F2F" id="jian-s01" data-stroke="1" data-char="jian"
  />
  
  <!-- Stroke 2: Top horizontal of eye -->
  <path 
    d="M140 36 Q145 32, 160 33 Q175 32, 185 36 Q188 40, 184 43 Q178 40, 165 41 Q150 40, 144 42 Q140 40, 140 36 Z"
    fill="#C52F2F" id="jian-s02" data-stroke="2" data-char="jian"
  />
  
  <!-- Stroke 3: Right vertical of eye -->
  <path 
    d="M182 32 Q186 36, 185 45 L185 85 Q185 92, 181 90 Q177 88, 178 82 L178 42 Q177 36, 182 32 Z"
    fill="#C52F2F" id="jian-s03" data-stroke="3" data-char="jian"
  />
  
  <!-- Stroke 4: First inner horizontal (upper pupil line) -->
  <path 
    d="M142 52 Q148 49, 160 50 Q172 49, 178 52 Q176 56, 168 54 Q156 56, 148 54 Q142 55, 142 52 Z"
    fill="#C52F2F" id="jian-s04" data-stroke="4" data-char="jian"
  />
  
  <!-- Stroke 5: Second inner horizontal (lower pupil line) + bottom -->
  <path 
    d="M142 68 Q148 65, 160 66 Q172 65, 178 68 Q176 72, 168 70 Q156 72, 148 70 Q142 71, 142 68 Z"
    fill="#C52F2F" id="jian-s05" data-stroke="5" data-char="jian"
  />
  
  <!-- Stroke 5b: Bottom horizontal of eye box -->
  <path 
    d="M140 85 Q145 82, 160 83 Q175 82, 185 85 Q188 89, 184 92 Q178 89, 165 90 Q150 89, 144 91 Q140 89, 140 85 Z"
    fill="#C52F2F" id="jian-s05b" data-stroke="5" data-char="jian"
  />
  
  <!-- === Er (legs) component - strokes 6-7 === -->
  
  <!-- Stroke 6: Pie (left-falling curved leg) -->
  <path 
    d="M152 92 Q148 98, 142 112 Q136 128, 130 145 Q126 158, 132 162 Q138 158, 142 145 Q148 128, 154 112 Q160 100, 152 92 Z"
    fill="#C52F2F" id="jian-s06" data-stroke="6" data-char="jian"
  />
  
  <!-- Stroke 7: Shuwangou (curved sweeping right leg) -->
  <path 
    d="M168 92 Q164 100, 165 115 Q164 135, 170 150 Q176 162, 188 166 Q200 164, 210 158 Q216 152, 212 147 Q202 152, 192 155 Q180 152, 176 142 Q172 128, 174 112 Q176 100, 168 92 Z"
    fill="#C52F2F" id="jian-s07" data-stroke="7" data-char="jian"
  />

</svg>
