<svg xmlns="http://www.w3.org/2000/svg" viewBox="0 0 400 200" fill="none">
  <!-- Seal: Yu Jian Dong Fang - Correct Stroke Order -->
  
  <!-- Outer border -->
  <path d="M10 12 C20 6, 80 8, 200 6 C320 8, 380 6, 390 12 C398 20, 400 35, 398 55 C400 100, 398 145, 400 165 C398 180, 395 192, 390 194 C380 200, 320 198, 200 200 C80 198, 20 200, 10 194 C3 188, 1 178, 3 160 C1 115, 3 70, 1 45 C3 28, 6 16, 10 12 Z" fill="none" stroke="#C52F2F" stroke-width="4"/>
  
  <!-- Inner border -->
  <path d="M22 24 C32 19, 85 20, 200 19 C315 20, 368 19, 378 24 C385 30, 387 42, 385 58 C387 100, 385 142, 387 160 C385 172, 382 182, 378 184 C368 189, 315 187, 200 189 C85 187, 32 189, 22 184 C15 179, 13 170, 15 154 C13 112, 15 72, 13 52 C15 38, 18 28, 22 24 Z" fill="none" stroke="#C52F2F" stroke-width="2"/>
  
  
  <!-- ========== CHARACTER 1: Yu - Redesigned based on proper seal script study ========== -->
  <!-- Position: x=35-105 -->
  <!-- Structure: Yu (monkey pictograph) + Chuo (walking radical) -->
  <!-- Yu should show: head box + body with internal lines + two legs -->
  <!-- Chuo wraps from left and bottom -->
  
  <!-- === Yu (monkey) component - strokes 1-9 === -->
  <!-- This represents the stylized monkey form in seal script -->
  
  <!-- HEAD section (like Tian/Jia - square head shape) -->
  <!-- Stroke 1: Top horizontal of head -->
  <path d="M58 35 Q65 33, 75 33 Q85 33, 92 35" 
    stroke="#C52F2F" stroke-width="4" stroke-linecap="round" fill="none"
    id="yu-s01" data-stroke="1" data-char="yu"/>
  <!-- Stroke 2: Left vertical of head -->
  <path d="M58 35 L58 55" 
    stroke="#C52F2F" stroke-width="4" stroke-linecap="round" fill="none"
    id="yu-s02" data-stroke="2" data-char="yu"/>
  <!-- Stroke 3: Right vertical of head -->
  <path d="M92 35 L92 55" 
    stroke="#C52F2F" stroke-width="4" stroke-linecap="round" fill="none"
    id="yu-s03" data-stroke="3" data-char="yu"/>
  <!-- Stroke 4: Bottom horizontal of head -->
  <path d="M58 55 Q65 57, 75 57 Q85 57, 92 55" 
    stroke="#C52F2F" stroke-width="4" stroke-linecap="round" fill="none"
    id="yu-s04" data-stroke="4" data-char="yu"/>
  
  <!-- BODY section (like Yong - vertical with internal horizontals) -->
  <!-- Stroke 5: Left vertical of body -->
  <path d="M60 57 L60 95" 
    stroke="#C52F2F" stroke-width="4" stroke-linecap="round" fill="none"
    id="yu-s05" data-stroke="5" data-char="yu"/>
  <!-- Stroke 6: Right vertical of body -->
  <path d="M90 57 L90 95" 
    stroke="#C52F2F" stroke-width="4" stroke-linecap="round" fill="none"
    id="yu-s06" data-stroke="6" data-char="yu"/>
  <!-- Stroke 7: Middle horizontal of body -->
  <path d="M60 75 Q75 77, 90 75" 
    stroke="#C52F2F" stroke-width="4" stroke-linecap="round" fill="none"
    id="yu-s07" data-stroke="7" data-char="yu"/>
  
  <!-- LEGS section (like Ba/Er - two diverging strokes) -->
  <!-- Stroke 8: Left leg -->
  <path d="M65 95 Q60 105, 52 120" 
    stroke="#C52F2F" stroke-width="4" stroke-linecap="round" fill="none"
    id="yu-s08" data-stroke="8" data-char="yu"/>
  <!-- Stroke 9: Right leg -->
  <path d="M85 95 Q90 105, 98 120" 
    stroke="#C52F2F" stroke-width="4" stroke-linecap="round" fill="none"
    id="yu-s09" data-stroke="9" data-char="yu"/>
  
  <!-- === Chuo (walking) radical - strokes 10-12 === -->
  <!-- This wraps around the Yu component from left and bottom -->
  
  <!-- Stroke 10: Dot in upper left -->
  <path d="M40 45 Q42 48, 44 52" 
    stroke="#C52F2F" stroke-width="4" stroke-linecap="round" fill="none"
    id="yu-s10" data-stroke="10" data-char="yu"/>
  <!-- Stroke 11: Curved vertical going down left side -->
  <path d="M42 58 Q38 80, 40 100 Q38 120, 45 140" 
    stroke="#C52F2F" stroke-width="4" stroke-linecap="round" fill="none"
    id="yu-s11" data-stroke="11" data-char="yu"/>
  <!-- Stroke 12: Horizontal sweep extending right -->
  <path d="M45 140 Q60 148, 80 145 Q95 142, 108 150" 
    stroke="#C52F2F" stroke-width="4" stroke-linecap="round" fill="none"
    id="yu-s12" data-stroke="12" data-char="yu"/>


  <!-- ========== CHARACTER 2: Jian - Seal Script (7 strokes) ========== -->
  <!-- Position: x=125-205 -->
  <!-- Structure: Mu (eye) on top + Er (legs) on bottom -->
  
  <!-- === Mu (eye) component - strokes 1-5 === -->
  
  <!-- Stroke 1: Left vertical of eye -->
  <path 
    d="M138 32 Q134 36, 135 45 L135 85 Q135 92, 139 90 Q143 88, 142 82 L142 42 Q143 36, 138 32 Z"
    fill="#C52F2F" id="jian-s01" data-stroke="1" data-char="jian"
  />
  
  <!-- Stroke 2: Top horizontal of eye -->
  <path 
    d="M140 36 Q145 32, 160 33 Q175 32, 185 36 Q188 40, 184 43 Q178 40, 165 41 Q150 40, 144 42 Q140 40, 140 36 Z"
    fill="#C52F2F" id="jian-s02" data-stroke="2" data-char="jian"
  />
  
  <!-- Stroke 3: Right vertical of eye -->
  <path 
    d="M182 32 Q186 36, 185 45 L185 85 Q185 92, 181 90 Q177 88, 178 82 L178 42 Q177 36, 182 32 Z"
    fill="#C52F2F" id="jian-s03" data-stroke="3" data-char="jian"
  />
  
  <!-- Stroke 4: First inner horizontal (upper pupil line) -->
  <path 
    d="M142 52 Q148 49, 160 50 Q172 49, 178 52 Q176 56, 168 54 Q156 56, 148 54 Q142 55, 142 52 Z"
    fill="#C52F2F" id="jian-s04" data-stroke="4" data-char="jian"
  />
  
  <!-- Stroke 5: Second inner horizontal (lower pupil line) + bottom -->
  <path 
    d="M142 68 Q148 65, 160 66 Q172 65, 178 68 Q176 72, 168 70 Q156 72, 148 70 Q142 71, 142 68 Z"
    fill="#C52F2F" id="jian-s05" data-stroke="5" data-char="jian"
  />
  
  <!-- Stroke 5b: Bottom horizontal of eye box -->
  <path 
    d="M140 85 Q145 82, 160 83 Q175 82, 185 85 Q188 89, 184 92 Q178 89, 165 90 Q150 89, 144 91 Q140 89, 140 85 Z"
    fill="#C52F2F" id="jian-s05b" data-stroke="5" data-char="jian"
  />
  
  <!-- === Er (legs) component - strokes 6-7 === -->
  
  <!-- Stroke 6: Pie (left-falling curved leg) -->
  <path 
    d="M152 92 Q148 98, 142 112 Q136 128, 130 145 Q126 158, 132 162 Q138 158, 142 145 Q148 128, 154 112 Q160 100, 152 92 Z"
    fill="#C52F2F" id="jian-s06" data-stroke="6" data-char="jian"
  />
  
  <!-- Stroke 7: Shuwangou (curved sweeping right leg) -->
  <path 
    d="M168 92 Q164 100, 165 115 Q164 135, 170 150 Q176 162, 188 166 Q200 164, 210 158 Q216 152, 212 147 Q202 152, 192 155 Q180 152, 176 142 Q172 128, 174 112 Q176 100, 168 92 Z"
    fill="#C52F2F" id="jian-s07" data-stroke="7" data-char="jian"
  />


  <!-- ========== CHARACTER 3: Dong - Seal Script (8 strokes) ========== -->
  <!-- Position: x=220-290 -->
  <!-- Structure: Sun (Ri) in center + Tree (Mu) vertical through with diagonals -->
  
  <!-- Stroke 1: Top horizontal of tree (above sun) -->
  <path 
    d="M232 32 Q238 28, 255 29 Q272 28, 278 32 Q280 36, 276 39 Q268 36, 255 37 Q242 36, 236 38 Q232 36, 232 32 Z"
    fill="#C52F2F" id="dong-s01" data-stroke="1" data-char="dong"
  />
  
  <!-- === Ri (sun) component - strokes 2-5 === -->
  
  <!-- Stroke 2: Left vertical of sun box -->
  <path 
    d="M238 42 Q234 46, 235 54 L235 88 Q235 94, 239 92 Q243 90, 242 85 L242 52 Q243 47, 238 42 Z"
    fill="#C52F2F" id="dong-s02" data-stroke="2" data-char="dong"
  />
  
  <!-- Stroke 3: Top horizontal of sun -->
  <path 
    d="M240 46 Q246 42, 255 43 Q264 42, 270 46 Q272 50, 268 52 Q262 49, 255 50 Q248 49, 244 51 Q240 49, 240 46 Z"
    fill="#C52F2F" id="dong-s03" data-stroke="3" data-char="dong"
  />
  
  <!-- Stroke 4: Right vertical of sun box -->
  <path 
    d="M268 42 Q272 46, 271 54 L271 88 Q271 94, 267 92 Q263 90, 264 85 L264 52 Q263 47, 268 42 Z"
    fill="#C52F2F" id="dong-s04" data-stroke="4" data-char="dong"
  />
  
  <!-- Stroke 5: Inner horizontal of sun (middle line) -->
  <path 
    d="M242 66 Q248 63, 255 64 Q262 63, 268 66 Q266 70, 260 68 Q252 70, 246 68 Q242 69, 242 66 Z"
    fill="#C52F2F" id="dong-s05" data-stroke="5" data-char="dong"
  />
  
  <!-- Stroke 5b: Bottom horizontal of sun -->
  <path 
    d="M240 88 Q246 85, 255 86 Q264 85, 270 88 Q272 92, 268 94 Q262 91, 255 92 Q248 91, 244 93 Q240 91, 240 88 Z"
    fill="#C52F2F" id="dong-s05b" data-stroke="5" data-char="dong"
  />
  
  <!-- Stroke 6: Main vertical of tree (through sun) -->
  <path 
    d="M252 28 Q248 32, 250 42 L250 145 Q250 155, 254 152 Q258 149, 257 142 L257 40 Q258 34, 252 28 Z"
    fill="#C52F2F" id="dong-s06" data-stroke="6" data-char="dong"
  />
  
  <!-- Stroke 7: Left diagonal (pie - tree root) -->
  <path 
    d="M250 95 Q246 102, 238 118 Q230 135, 222 152 Q218 164, 224 168 Q230 164, 236 150 Q244 132, 252 115 Q258 102, 250 95 Z"
    fill="#C52F2F" id="dong-s07" data-stroke="7" data-char="dong"
  />
  
  <!-- Stroke 8: Right diagonal (na - tree root sweeping right) -->
  <path 
    d="M256 95 Q260 102, 268 118 Q276 135, 286 152 Q292 164, 298 160 Q300 154, 292 142 Q282 125, 272 108 Q262 95, 256 95 Z"
    fill="#C52F2F" id="dong-s08" data-stroke="8" data-char="dong"
  />


  <!-- ========== CHARACTER 4: Fang - Seal Script (4 strokes) ========== -->
  <!-- Position: x=310-380 -->
  <!-- Structure: Dot at top + horizontal + vertical-hook + left-falling -->
  
  <!-- Stroke 1: Dian (dot) at top -->
  <path 
    d="M345 32 Q340 28, 342 35 Q340 44, 348 50 Q356 44, 352 38 Q354 32, 345 32 Z"
    fill="#C52F2F" id="fang-s01" data-stroke="1" data-char="fang"
  />
  
  <!-- Stroke 2: Heng (horizontal) -->
  <path 
    d="M318 55 Q325 50, 345 52 Q365 50, 375 55 Q378 60, 374 64 Q366 60, 350 62 Q334 60, 324 63 Q318 60, 318 55 Z"
    fill="#C52F2F" id="fang-s02" data-stroke="2" data-char="fang"
  />
  
  <!-- Stroke 3: Hengzhegou (horizontal-bend-hook) - forms the body -->
  <path 
    d="M345 55 Q340 60, 342 72 L342 135 Q340 148, 348 155 Q358 150, 368 145 Q376 140, 372 135 Q364 140, 355 145 Q350 142, 350 132 L350 70 Q352 62, 345 55 Z"
    fill="#C52F2F" id="fang-s03" data-stroke="3" data-char="fang"
  />
  
  <!-- Stroke 4: Pie (left-falling) -->
  <path 
    d="M342 72 Q336 82, 328 100 Q318 122, 308 145 Q302 160, 310 165 Q318 160, 325 142 Q336 118, 346 95 Q354 80, 342 72 Z"
    fill="#C52F2F" id="fang-s04" data-stroke="4" data-char="fang"
  />

</svg>
