<svg xmlns="http://www.w3.org/2000/svg" viewBox="0 0 240 200" fill="none">
  <!-- Irregular rectangular seal: Lian Tong -->
  
  <!-- Outer border - organic irregular rectangle -->
  <path 
    d="M15 18 
       C25 12, 60 14, 120 12 
       C180 14, 215 12, 225 18 
       C232 25, 234 40, 232 60
       C234 100, 232 140, 234 160 
       C232 175, 230 185, 225 188
       C215 194, 180 192, 120 194 
       C60 192, 25 194, 15 188
       C8 182, 6 170, 8 150 
       C6 110, 8 70, 6 50 
       C8 32, 10 22, 15 18 Z"
    fill="none"
    stroke="#C52F2F"
    stroke-width="5"
  />
  
  <!-- Inner border -->
  <path 
    d="M28 32 
       C38 27, 65 28, 120 27 
       C175 28, 202 27, 212 32 
       C218 38, 220 50, 218 68
       C220 100, 218 132, 220 152 
       C218 164, 216 172, 212 175
       C202 180, 175 178, 120 180 
       C65 178, 38 180, 28 175
       C22 170, 20 160, 22 145 
       C20 112, 22 78, 20 58 
       C22 44, 24 36, 28 32 Z"
    fill="none"
    stroke="#C52F2F"
    stroke-width="2.5"
  />
  
  
  <!-- === LEFT: Lian (connect) - proper structure === -->
  <!-- The ? wraps around ? -->
  
  <!-- ? component - centered in left half -->
  <!-- Top horizontal -->
  <path d="M42 48 Q50 45, 70 46 Q90 45, 98 48 Q96 52, 88 50 Q68 52, 52 50 Q44 52, 42 48 Z" fill="#C52F2F"/>
  
  <!-- Center vertical of ? -->
  <path d="M68 46 Q65 50, 66 58 L66 105 Q66 112, 70 110 Q74 108, 73 102 L73 56 Q74 50, 68 46 Z" fill="#C52F2F"/>
  
  <!-- Box left vertical -->
  <path d="M48 55 Q45 58, 46 65 L46 95 Q46 102, 50 100 L51 68 Q52 60, 48 55 Z" fill="#C52F2F"/>
  
  <!-- Box right vertical -->
  <path d="M92 55 Q95 58, 94 65 L94 95 Q94 102, 90 100 L89 68 Q88 60, 92 55 Z" fill="#C52F2F"/>
  
  <!-- Horizontal bars inside box -->
  <path d="M48 62 Q58 59, 70 60 Q82 59, 94 62 Q92 66, 84 64 Q70 66, 56 64 Q50 66, 48 62 Z" fill="#C52F2F"/>
  <path d="M48 78 Q58 75, 70 76 Q82 75, 94 78 Q92 82, 84 80 Q70 82, 56 80 Q50 82, 48 78 Z" fill="#C52F2F"/>
  <path d="M46 95 Q58 92, 70 93 Q82 92, 96 95 Q94 99, 84 97 Q70 99, 56 97 Q48 99, 46 95 Z" fill="#C52F2F"/>
  
  <!-- ? radical - wrapping around -->
  <!-- The curved embracing stroke -->
  <path d="M38 108 Q34 112, 36 120 Q34 135, 42 145 Q50 150, 58 148 Q52 144, 48 135 Q44 125, 46 115 Q48 110, 38 108 Z" fill="#C52F2F"/>
  
  <!-- Bottom sweep of ? -->
  <path d="M42 148 Q38 144, 45 140 Q65 134, 90 136 Q108 134, 115 145 Q120 155, 112 158 Q104 152, 88 150 Q62 152, 50 150 Q42 152, 42 148 Z" fill="#C52F2F"/>
  
  <!-- Dot of ? -->
  <path d="M42 100 Q38 97, 40 102 Q38 110, 44 114 Q50 110, 46 104 Q48 98, 42 100 Z" fill="#C52F2F"/>
  
  
  <!-- === RIGHT: Tong (through) - proper structure === -->
  <!-- ? on top (different from ?), ? wrapping -->
  
  <!-- ? top lid (wider, curved) -->
  <path d="M130 48 Q140 44, 165 45 Q190 44, 200 48 Q198 52, 188 50 Q165 52, 148 50 Q134 52, 130 48 Z" fill="#C52F2F"/>
  
  <!-- ? center vertical -->
  <path d="M163 45 Q160 49, 161 56 L161 105 Q161 112, 165 110 Q169 108, 168 102 L168 54 Q169 49, 163 45 Z" fill="#C52F2F"/>
  
  <!-- ? enclosed box - outer -->
  <path d="M140 58 Q137 62, 138 70 L138 92 Q138 98, 142 96 L143 72 Q144 64, 140 58 Z" fill="#C52F2F"/>
  <path d="M188 58 Q191 62, 190 70 L190 92 Q190 98, 186 96 L185 72 Q184 64, 188 58 Z" fill="#C52F2F"/>
  
  <!-- ? box horizontals -->
  <path d="M140 60 Q152 57, 165 58 Q178 57, 190 60 Q188 64, 180 62 Q165 64, 150 62 Q142 64, 140 60 Z" fill="#C52F2F"/>
  <path d="M140 76 Q152 73, 165 74 Q178 73, 190 76 Q188 80, 180 78 Q165 80, 150 78 Q142 80, 140 76 Z" fill="#C52F2F"/>
  <path d="M138 92 Q152 89, 165 90 Q178 89, 192 92 Q190 96, 180 94 Q165 96, 150 94 Q140 96, 138 92 Z" fill="#C52F2F"/>
  
  <!-- ? bottom opening - two legs -->
  <path d="M148 94 Q145 98, 146 105 L146 118 Q146 124, 150 122 L151 108 Q152 100, 148 94 Z" fill="#C52F2F"/>
  <path d="M180 94 Q183 98, 182 105 L182 118 Q182 124, 178 122 L177 108 Q176 100, 180 94 Z" fill="#C52F2F"/>
  
  <!-- ? radical for ? -->
  <!-- Curved embracing stroke -->
  <path d="M128 115 Q124 120, 126 128 Q124 142, 132 152 Q140 158, 148 156 Q142 152, 138 142 Q134 132, 136 122 Q138 117, 128 115 Z" fill="#C52F2F"/>
  
  <!-- Bottom sweep of ? -->
  <path d="M132 155 Q128 151, 135 147 Q158 140, 185 142 Q205 140, 215 152 Q220 162, 210 165 Q200 158, 182 156 Q155 158, 142 156 Q132 158, 132 155 Z" fill="#C52F2F"/>
  
  <!-- Dot of ? -->
  <path d="M130 105 Q126 102, 128 108 Q126 116, 132 120 Q138 116, 134 110 Q136 104, 130 105 Z" fill="#C52F2F"/>
</svg>
