<?xml version="1.0" encoding="UTF-8"?>
<svg viewBox="0 0 100 60" xmlns="http://www.w3.org/2000/svg">
  <g fill="#C52F2F" transform="translate(-60, -375) scale(0.8)">
    <path d="m 60.384011,414.52889 c 0.003,-0.33995 1.70115,-2.85748 3.77416,-5.59453 4.55198,-6.01007 9.50235,-9.52355 13.41835,-9.52355 9.50948,0 15.55979,-9.67057 10.61574,-16.96777 -4.38134,-6.46666 -12.5635,-6.1479 -14.24582,0.55499 -0.81697,3.25507 0.91644,5.61422 1.88435,2.56459 1.36097,-4.28801 8.08315,-3.85285 9.19963,0.59554 2.4927,9.93172 -14.17886,12.41462 -18.23152,2.71523 -2.26939,-5.43141 0.0807,-12.37282 5.27612,-15.58375 2.74806,-1.69839 4.43789,-2.02312 8.20576,-1.57687 9.77759,1.15801 16.1114,6.89776 17.64798,15.99272 l 0.69606,4.11994 1.877079,-2.3181 c 2.49375,-3.07965 2.36743,-5.09485 -0.592789,-9.45697 -2.59134,-3.81856 -2.28596,-4.25762 1.863889,-2.67985 3.00041,1.14076 6.60598,7.70819 6.60598,12.03258 0,4.19891 -2.40559,9.61923 -4.8496,10.92723 -1.11041,0.59427 -4.185999,1.09619 -6.834659,1.11538 -6.92137,0.0501 -19.32197,2.43193 -24.43329,4.69291 -2.41433,1.06797 -6.07556,3.53175 -8.13607,5.47506 -2.06051,1.94331 -3.74412,3.25516 -3.74135,2.91522 z"/>
  </g>
</svg>
