<?xml version="1.0" encoding="UTF-8"?>
<svg viewBox="0 0 100 80" xmlns="http://www.w3.org/2000/svg">
  <g fill="#C52F2F" transform="translate(-555, -115) scale(0.6)">
    <path d="m 563.85802,218.60938 c -5.2492,-1.8151 -8.9589,-4.11639 -16.479,-10.22274 -12.0027,-9.74622 -29.2189,-19.77377 -44,-25.62777 -9.2483,-3.66272 -9.8446,-3.76303 -22.50004,-3.78491 -13.63019,-0.0236 -22.35676,1.79014 -31.84691,6.61897 -7.24205,3.68494 -4.6708,1.14711 3.59239,-3.54571 12.43588,-7.06255 19.92282,-9.07819 33.75452,-9.08741 9.94914,-0.007 12.64624,0.37248 20.00004,2.81114 13.1921,4.37482 20.7025,2.98336 24.6023,-4.55812 2.886,-5.58088 0.5545,-14.04215 -4.6345,-16.81922 -2.8182,-1.50825 -3.1263,-1.02221 -1.9507,3.07683 1.5957,5.56391 1.1603,7.91678 -2.061,11.13808 -2.7381,2.73808 -3.4636,2.97676 -7.2215,2.37585 -20.7929,-3.32492 -28.19173,-32.93817 -10.5343,-42.16284 4.4015,-2.29946 11.7614,-1.80078 16.0076,1.08464 l 3.6723,2.49535 2.6962,-4.95383 c 3.6025,-6.61896 8.9673,-10.25157 16.0014,-10.8349 9.856,-0.81733 17.6377,3.86097 20.4138,12.27261 1.4428,4.37177 0.1773,8.77945 -4.0467,14.09464 -2.6965,3.39314 -2.9449,4.36966 -2.9449,11.57489 0,7.23022 -0.211,8.05124 -2.5977,10.11249 -4.5213,3.90464 -6.706,9.48501 -7.1943,18.3763 -0.6933,12.62549 2.843,21.01731 11.5569,27.4256 4.4797,3.29439 14.2676,6.17909 18.1293,5.34305 12.0619,-2.61133 19.3187,-10.10557 19.5073,-20.14554 0.054,-2.88419 0.1994,-5.24669 0.3228,-5.25 0.1233,-0.003 0.9108,1.32163 1.75,2.94432 4.6007,8.89688 -2.6354,22.23821 -13.8716,25.57499 -6.5273,1.9384 -13.92,1.81836 -20.1237,-0.32676 z"/>
  </g>
</svg>
